<?xml version="1.0" encoding="UTF-8"?>
<svg xmlns="http://www.w3.org/2000/svg" version="1.1" viewBox="0 0 669.4 669.4">
  <defs>
    <style>
      .cls-1 {
        fill: #5d0401;
      }

      .cls-2 {
        fill: #022c7c;
      }

      .cls-3 {
        fill: #fff;
      }

      .cls-4 {
        fill: #8f7419;
      }
    </style>
  </defs>
  <!-- Generator: Adobe Illustrator 28.7.2, SVG Export Plug-In . SVG Version: 1.2.0 Build 154)  -->
  <g>
    <g id="_レイヤー_1" data-name="レイヤー_1">
      <g>
        <path class="cls-4" d="M28.2,467.8c-1.3-9.1-1.6-26,5.6-32.6,1.2-.7,1.7-2.4,2.4-3.6,9.2-14,19.6-26.7,28.7-40.7,1.3-2.3,3.3-4.7,6.3-4.7,6.5,1.1,12.5,3.1,18.1,6.5,4,.9,3.2.7,5.5,3.7,4.3.2,6.2,4.9,10.1,6.5,1.2.6,2.9.9,3.1,2.8,3,.6,3.4,4.1,6,5.3.8.4,1.7,1.3,1.6,2.5,1-2.1,4.7,3.4,5.7,4.3,7.7,8.1,6.4,7.4,14,0,.7-.8,1.3-1.8.7-2.5-1.8-1.8-2.1-4.3-3.2-6.3-4.5-7-6.7-14.9-9.8-22.6-2.1-7-4.2-14.1-6.3-21.2-.3-2,.6-4.2-1.5-5.8.8-3.1-1.1-6.2-.3-9.3.7-1.2-1.5-1.1-1.4-2,.8-1.7-1-2.6-.9-4.1-.5-4.2.6-8.7-1.4-12.5.2-26.7-.1-53.3.8-79.9-.2-23.9-1.6-48.2.1-72.1-1.8-7.9.6-16-1.2-24-.3-3.3,1.7-2.6,0-6.8-.1-4.5.6-9.1,0-13.6.6-18.6-1.9-37.4-.6-55.7,5.4.5,8.8,4.5,13.1,7,8.4,4.3,17.1,8.5,26.4,10.7,3.1,2.3,7.1,1,10.3,2.9,5.3,0,10.4,1.8,15.7,1.2,12.7,1.8,26.4,0,39.3-1.9,4.6-.2,9.1-.8,13.3-2.8,3.9.7,7.2-1.7,11-1.6,28.4-9.3,56-20.1,82.2-34.6,8.7-4.9,10-3,17.6,1.3,7.1,4,14.3,7.5,21.9,10.6,25.4,12.4,52.8,20.3,80,26.5,25.3,1.8,52.7,3.6,76.5-7.4,9.9-1.6,16.7-9.7,25.7-13.2,1-.7,1.6-2.3,3-1.1.6.5,1.4,1.1.7,2.1-.8,4,.2,8.4-.1,12.6-.8,25.1-.8,50.3-1,75.5.2,24.9,0,50-.1,74.5.3.4.6,1.1.4,1.4-1.1,1.7-.1,3.3,0,4.9,0,2,0,3.9.5,5.8-1.8,5.3,0,10.9-1,16.5,1,5.3,0,10.5,0,15.9-.9,6,2.9,12.2,0,17.9-.7,1.5,1.1,0,.6,2.2,1.8,25.3-2.8,50.2-10.2,74.2-3.2,4.1-3,9.7-6,14-1.3,1.9-1,4.2-1.6,6.3,1.6,4.8,8,7,10.6,11.6,5.5-3.1,7.3-10,12.8-12.5,2.8-4.2,8.2-5.6,10.9-10,6.7-4.9,13.1-9.9,20.9-12.1,4.1-3.3,9.1-4.2,14.2-4.4,4.8-.7,5.7-1.8,8.9,3,2.2,3.3,4.9,6.4,6.5,10,.3.8.4,1.6,1.4,1.8.8.2.9,1,1.4,1.5,2.9,4.6,6.8,8.9,9.6,13.4.9,3.3,4.2,4.9,4.9,8.2,3.3,2.3,4.5,6.1,6.5,9.3,3.1,2.8,4.4,6.1,4.6,10.3,1.8,15.5-.8,32.1-8.9,45.5-.6,1.1-1.4,2.7-2.3,3.2-3.2,2.1-5.6,10.6-9.6,4.8-4.3-4.8-9.4-9.1-13.1-14.5-3-2.4-4.7-4.7-6.8,1-4.2,10.2-10.7,19.2-14.2,29.6-1.1,4-4.3,7.3-6.5,10.8-2,6-6.8,10.2-11.5,14.4-3.6,3.5-9.3,1.8-10.5,4.1-5.9-1.2-12.6-1.8-15.7-8.3-3.1-5.8-8.2-9.8-12.4-14.6-1.5-2-3.4-2-4.8.2-1.9,2.8-5.4,3.9-6.9,6.9-3.6,1.2-5.2,5-8.3,6.6-2.3,1.2-2.9,3.8-5.4,4.7-6.6,4.4-12.6,10.5-19.3,14.7-2.1,1.2-3.4,3.7-6.2,3.7-.5,0-.9,1.8-1.4,1.9-6.4,2.4-11,8.1-17,11.1-3.5,2.5-7.9,3.7-11,6.6-2.6-.4-4,1.8-6,2.9-16.7,9.7-33.4,18.3-51.4,24.9-10.5,4.8-20.9,9.1-31.3,13.9-4.9,1.5-9.9,3.2-14.3,5.4-2.7-.1-5.1.8-7.4,2.3-7.8-.8-16.2-3.8-24.1-5.5-26-7.1-51.8-15.9-75.8-28.1-6-1.6-11.2-5.3-17.1-7.4-4.5-1.4-7.9-4.8-12.5-5.9-1.4-.5-2.3-2.2-4-2.6-1.5-.4-3.2-.8-4.1-2.5-1-1.1-3-.9-4.2-2-5.6-4.4-12.8-6.3-18.1-11-.2-.1-.3-.4-.5-.4-3.2.1-4.8-2.9-7.4-3.8-.4-.1-.7-.3-.9-.8-.9-2.3-3.8-2.7-5.5-3.6,0-2-1.8-1.6-2.7-2.3-5.5-3.8-11.2-8.1-16.5-11.5-2,.5-1.6-1.5-2.6-2-2.3-1.3-4.1-3.3-6.3-4.8-1.9-1.6-3.5,2.2-5,3-7.7,6.6-13.4,19.3-25.4,16-4.5-1.2-9-2.5-11.7-6.7-.2-.2.1-.9-.6-.8-2.1.1-3-1.6-4.1-2.9-7.7-7.9-12.8-18-13.9-29,0-.3.2-.6,0-.9-3.2-2.4-3-6.6-5.2-9.5-1.7-2.3-2.6-5.1-4.4-7.3-3.8-3.7-18.4,20-23.3,21.4-.9-2.4-3.5-3.2-4.6-5.4,0-.1-.6,0-.9-.1h0c-2.2-8.8-9.4-17.3-9.4-27h0c.3-.3,0-.6-.2-.9ZM129.1,505.2c0,.1.1.3.3.3,0,0-.2-.2-.3-.2,1.8-6.5-17.4-25.8-23-26.1-.4,2.7,4.2,4.5,5.4,7,3.5,6.7,9.4,12.6,10.3,20.4,0,.3,0,.7.5.7,1.7-.2.7,1.8,1.8,2.2,2.2-.7,3.6-2.5,5.1-4.2ZM522.7,490.1c4.7-5.4,8.4-12.4,12.5-18.5,4.2-4.2,8-9.6,12.8-12.9,3.7-.8,5.4-4.6,8.7-5.7,1.2-.1,5.7-1.7,3.6-2.9-1.3-.7-1.8-2.8-3.8-2.1-2.7-3.8-6.5-6.8-9.8-10.2-2.2-1.8-3.3-4.9-6.1-6.1-3.7-1.6-4.6-5.9-8-7.6-1.7-.4-1.4-2.7-3.1-3.2-.9-.2-1.8-1.3-2.2-2.2-1.1-2.3-3.3-3.1-5-4.7-2.9-2.5-8.2,11.6-10.6,13.7-5.3,8.3-11.6,15.6-17.4,23.5-2.3,2.1-5.4,3.4-6.3,6.9-9.2,9.4-19.1,18.1-29.3,26.5-3,2.7-7,4-9.2,7.5-7.8,5.7-16.2,10.6-23.9,16.3-1.5.9-1-.8-1.8-.5-3.5,5.3-11,7-16,10.9-1.1.7-2.6.2-3.4,1.3-.8,1-1.6,1.7-3.1,1.8-1.3,0-2.2,1.3-3.3,1.9-3,1.7-6.8,1.7-9.3,4.5-.3.4-.9.6-1.5.4-.7-.2-1.3.1-1.6.6-.9,1.2-2.2,1.6-3.6,2-9.5,3.2-18.5,8-28.3,10.3-8.4,1.6-16.1,6.3-24.5,7.3-2-.8-4.4,0-6.1-1.6-1.2-.9-2.9.5-4.2-.4-10.2-3.1-20.3-6.5-30.5-9.9-6.6-2.3-13.1-5.1-19.5-7.8-1.6-.9-3.8,0-4.8-1.7-1.2-2-3.9-.9-4.9-2.9-1.8,1-2.6-.8-3.7-1.5-5.1-3.1-10.9-4.4-15.5-7.9-2.1.4-2.7-1.8-4.2-2.6-9.6-5.5-19-11.5-27.7-18.2-1.8-2.2-5.1-2.1-6.8-4.5-3-3.3-6.9-5.5-10-8.6-7.2-5.4-13.2-12.4-20-18.5-1.7-3.9-6.1-5.5-8-9.2-2.1-4.4-6.5-6.8-9.1-11-12.7-16.2-5.8-18.6-20-5.5-1.2.8-1.5,2.8-2.9,3.5-1.3.7-1.4,3.3-3.7,2.3-.4,2.5-3.2,3-4.4,5-.5,1.1-2.1,1.3-2.1,2.8-1.1,2.3-3.4,0-4.5,4.2-1.7,3-10.9,6.9-6.2,10.4,13.4,7.6,25.4,19,31.4,33.5.4,2.7,2.7,4.8,2.8,7.7,0,1,1,1.5,1.9,2,6.5,4.4,13.2,8.8,19.2,13.5.8.6,2.4.6,1.9,2.2,1.6.6,4,.4,4.8,2.2,2.3,3.2,7.1,2.8,9.4,5.8,5.1,5.1,12.4,6.5,17.6,11.2,31.5,16,63.5,31.9,97.1,42.8,12.2,3.5,24.2,7.4,36.5,10.5,2.7.9,5.2,2.2,8.1.2,5.2-2.1,11.3-3.5,15.8-6.5,3,.5,5.2-1.8,7.9-2.5,9.4-3.3,18.8-7.9,27.7-12.2,10.6-4.1,20.9-8.8,30.4-14.8,7.4-2.7,14.1-7.4,21.4-10.6.9-.3.4-2.3,1.9-1.9,1.6.5,1.6-1.2,2.6-1.6,3.8-1.4,7.1-4,10.4-6.3,1.5,1.4,2.1-.6,2.5-1.1,1.4-1.6,2.6-3.2,5-3.2,4.1-3.5,8.8-6.7,13.3-9.7,2.2-2.8,5.3-3.4,7.6-6,2.5-1.9,4.8-4.3,7.8-5.1,2-3.3,6.1-4.4,7.9-7.9.2-.4.6-.6,1.1-.5.8.3,1.2-.2,1.5-.8,1.4-2.5,4.5-3.3,5.8-5.8,4.2-2.8,7.8-7.1,11-10.7h0ZM330,535.3c27.2-5.7,53.3-18.8,78.1-31.5,34-19.9,66.6-44.9,89.4-77.5,6.8-9.2,13.2-19.5,17.7-30.2,0-.5,0-1.2.7-1.3,1.3-.3,1.5-1.5,1.7-2.4,1.9-5.4,4.7-10.7,5.7-16.4,2-1.4,2-3.7,2.5-5.6,9.2-30,7.8-61.4,7.8-92.4-.6-11.2,0-22.4,0-33.7,1.2-5.9-2-12-.3-17.7-1.1-13.1.6-26.8-.5-39.8.4-19.6.9-39.5.3-59,2-50.8,6.4-18.1-51.6-14.8-50.3,3.7-99.1-15-143.3-37.2-3.3-1.8-6.8-4.7-10.8-3.8-8.5,4-16.7,8.5-25.1,12.6-30,14-61.4,25.2-94.1,29.1-15.8,1.4-31.9,2.1-47.8-.9-11.3-1.8-22.8-5.2-33.2-10.2-1-.6-2.2-1.2-3.7-.7.6,27.9-.1,55.3,1.2,83.3-.5,10.7.3,21.7-.5,32.4,2.4,3-1,2.7-.3,4.8,1.8,7.5-.1,15.5.9,23.2-1.1,9.1.1,18.3-.4,27.4,1.3,5.7-.9,12.2,0,17.6,1.2,14.6-1.4,30.4.5,45.2.8,10.4,3.2,20.7,5.4,30.9.3,1.5.4,3.4,2.1,4.4.4.2.2.7.1,1.1,4,17.5,13.8,33.5,23,49.3,7.4,10.9,15.3,21.6,24.6,30.7,1.8,3.7,5.8,5.4,8,8.8.5.8,1.4,1.9,2.8,1.7,1.7,1.9,3.6,4.6,6.1,5.9,2.8,1.5,4.1,4.7,6.6,6.4,1.7,1.1,4.1,1.5,4.9,3.8,6.4,2.9,11.3,8.5,17.5,12,7.6,5.3,16,9.5,23.8,14.2,2.4,3,6.9,3,9.9,4.9,9.5,5.6,20,8.7,29.5,14.1,1.3,1,3.4.3,5.1,1.5,1.4,1.1,3.6,1.1,5.5,1.6,1.3.4,2.8.3,3.8,1.2,1.8,1.5,4.1,1.2,6.2,1.7,3.9,1.3,17.5,7.1,20.3,5.1ZM89.7,498.2c-.4,1.4-.3,2.2.2,2.9,2.9,6,6.2,11.6,10.6,16.9,2.6,2.3,10.1,9,11.8,3.4,2.3-7.2-4.4-12.5-5.3-18.8-3.8-3.9-5.9-9.1-10.2-12.5-.5-1.1-1.5-1.6-2.7-1.8-3.7-.4-5.4-3.2-7.1-6.1-1.1-.8-.9-1.9-.8-2.9.8-5.1,1.7-10.1,3.6-14.7,2.6-1.2,3.4-4.1,5.3-6,1.4-1.3,3.1-2.5,3.4-4.7,0-.1.4-.3.5-.3.5.7.8,1.3,1.4-.1,1.3-2.1,3.5-3.9,5.1-5.8,2.5-3.8,3.5-.9,5.1-5.1,1.8-2.1,4.8-3.2,5.5-6.2.1-.5.5-.6,1-.5,1,.3,1-.5,1.1-1.1,0-.6.2-1.4-.5-1.6-2.8-.8-3.8-3.3-5.5-5.3-2.6-4.2-7.5-6.4-10.7-10.1-7.4-7.1-15.9-12.7-25.6-16-2.7-1-4.6,3.1-6.4,4.5.4,3-2.5,4.1-3.8,6.1-1.3,1.1-.9,3-2.6,3.7-1.1.6-.6,2.4-1.3,2.6-1.3.4-1.1,1.4-1.5,2.2-5.4,3.7-6.8,10.8-11.5,15-9.8,7.3,10.4,12.6,13.4,18.8,2.8,4.7,8.3,7.4,10.6,12.4.5,1.4,1.3,2.9,3.3,2.4.5,0,1,.1.9.6-.4,1.6.9,2.8.7,4.2,0,.5-.2,1,.5,1.2,2.8,1,2.2,4.2,3.8,5.9,0,.3-.5.6-.8.7,4.7,3,6.7,10.6,8.2,16ZM561.1,411.1c-2.4-1.4-4,2.6-5.7,3.6-1.5.7-7.3,7.2-5.3,8.4,5.5,5.5,11.2,11.1,17.3,16,4.3,2.6,9,5.2,12.2,9.1.3.8,2.1.5,1.3,2-.6,1.2,1,.5,1.4,1.4,6.7,8.8,1.9,21.4-6.5,27-3.6,3.1-8.3,5-11,8.7-2.4,3.2-2.1,3.7-2.9,3.7-4.9,2.7-13.7,19.9-6,23.5,2.9,1.4,5.7-1.3,7.3-3.2,1.9.4,1.5-1.6,2.4-2.2,4.2-3.3,4.6-9.4,8.5-13.1,0-1.4-.4-2.4,1.1-3.2,3.4-2.8,2.8-8.1,6.1-10.8.5-3.4,3.1-6,3.6-9.4,2.5-2.6,3.7-5.9,4.7-9.3.4-1.3,2.1-1.9,1.6-3.6,2.8,0,1.9-6.3,5.1-7.6,3.6-8.8,10.9-15.5,16.9-22.6,3.1-1.1,5.3-3.9,8.6-4.9,1.7-.5,1.9-1.7.7-3.1-3.7-3.8-5.9-9-8.8-12.9-1.2-.3-1.6-1.2-2.1-2.1-3.4-6.3-7.8-11.7-12-17.4-2.9-4.4-12.2.6-15.4,3-1.4,1.7-3.8,1.8-5.6,3.1-3.4,3.6-7.5,5.3-11.1,8.3-.4.3-1,.4-1,1-.4,3.6-6,2.7-5,6.8ZM628.9,442.6c-.3-2.5,1.3-7.3-2.2-6.1-2.2.8-4.6,1.3-5.7,3.8-.2.4-.7.8-1.1,1.1-3.6,2.6-5.8,6.6-8.6,9.9-1.4.9-.9,2-.2,2.9,2.2,2.3,12.3,16.4,13.9,8.5,0-2.2.7-4.4,1.6-6.1,1.2-2.1.3-4.6,1.9-6.4-.6-2.8.8-5.5.3-7.7ZM541,497.7c.4,0,.9-.1,1.1-.8,1.8-4.4,4.9-7.6,7-11.8,2.6-2.1,4.7-4.7,6.6-7.4,1.5-.5,2-2.9,3-2.8,2.2.2,2-2,3.3-2.5,23.6-15.9-2.1-9.7-10,.2-4,1.9-5.3,7.2-9.4,9.6-2.8,2.4-2.7,7.3-5.9,9.7-2.4,2.6,2.8,3.4,3.5,5.6,0,.1.4,0,.7.2ZM39.9,455c.8,4.4,0,8.7,1.2,13,1.8,2.1,2.7,13.7,6.5,10.2,1.2-3.1,11.5-9.3,8.4-11.8-4.2-1.8-5.6-6.7-9.6-8.4-2.2-.7-3.9-2.4-6.4-3Z"/>
        <path class="cls-4" d="M28.5,468.7c-.9,0-.7-.5-.3-.9.2.3.7.7.2,1h0Z"/>
        <path class="cls-4" d="M37.9,495.7h0c0,0,0,0,0,0Z"/>
        <path class="cls-1" d="M330,535.3c-2.6,2.1-16.6-3.8-20.3-5.1-2.1-.5-4.3-.2-6.2-1.7-1.1-.9-2.6-.8-3.8-1.2-1.8-.6-4-.6-5.5-1.6-1.7-1.3-3.8-.6-5.1-1.5-9.5-5.4-20-8.4-29.5-14.1-3-1.9-7.5-1.9-9.9-4.9-7.8-4.6-16.2-8.9-23.8-14.2-6.2-3.5-11.1-9.1-17.5-12-.8-2.3-3.1-2.7-4.9-3.8-2.5-1.7-3.9-4.9-6.6-6.4-2.6-1.3-4.5-3.9-6.1-5.9-1.4.2-2.3-.8-2.8-1.7-2.2-3.4-6.2-5.1-8-8.8-9.3-9.1-17.3-19.8-24.6-30.7-9.2-15.8-19-31.9-23-49.3.1-.4.3-.9-.1-1.1-1.7-1-1.8-2.9-2.1-4.4-2.3-10.3-4.6-20.5-5.4-30.9-1.9-14.8.7-30.7-.5-45.2-.9-5.4,1.3-12,0-17.6.1-10.2-.2-20.4.3-30.6-1.4-6.7,1.3-13.6-.9-20-.6-2.3,2.7-1.7.3-4.8.8-10.8,0-21.7.5-32.4-1.3-27.9-.6-55.4-1.2-83.3,1.5-.5,2.8.1,3.7.7,10.4,5,21.8,8.4,33.2,10.2,15.9,3,32,2.3,47.8.9,2-1.5,4.3-.2,6.2-.8,2.6-.7,5-1,7.7-.9,6.5-2.5,13.8-2.9,20.5-5,14.5-4,28-9.1,41.8-14.7,12-5,23.8-10.4,35.2-16.7,3.3-1.2,7.2-5,10.7-3.5-.7,1.8-.7,3.7-.2,5.5.8,4.4-.6,8.9-.8,13.3.9,4.4,1.4,8.5.2,13-1.1-.2-1.8.7-1.6,1.5.6,2.3-2.5,3.9-1.1,6.3-2.2,1-1,3.1-1.4,4.7-1.4,4.8-6.6.9-9.8.6-3.3-.7-6.6.4-9.8-.1-2.6,1.9-6.2,2.3-7.9,5.4-2.7,3.5-5.4,6.4-4.8,11.2-.5,2.3-2.2,3.3-.7,5.8,1.3,5.5,2.8,10.7,8.5,13l-.2-.2c-2.2-6.9-4.1-16.7,3.8-20.8.2.5.4,0,0,0,.1-2.2,2.4,0,3.6-.9,11.6-1.9,17.2,11.9,16.6,21.3.2,1.7,0,4.1-1.3,5.2-5.4,6.9-15.4,8.2-23.1,4.2-4.9-3.1-7,6.9-12.9,3.1-2.5.7-4.1-.8-5.4-2.5-2.3-2.4-1.4-5.6-1.9-8.5-1-3.8,2.9-6.7,3.3-10-.7-10.7-17-15.8-22-5.4-1.1,1.8-1.9,2.1-3.4.7-2.9-2.5-6.5-4-9.3-6.6-2-.9-4.4-1.1-6.6-1.8-1.6-.3-3-1.7-4.7-1.1-4.5,1.3-9.7,1.1-13,4.7-3.3,1-4.6,3.7-5.9,6.4,2.7,1.7,6.3.6,9.3,1.5,8.6,1.7,16.6,6.1,22.5,12.7,1,1.4,2.3,3.1,3.7,3.9,2.4,2,3.1,4.5,4.8,6.9,9.3,9.3,15,22.2,24,31.9,14.9-3.5,30.9-6.1,46.9-5.3-.7,5.9,0,11.8.3,17.7-.6.6-1.4,1.2-2.2,1.1-8.6-.3-17.1,2-25.2,4.7-6.5,2.3-12.3,6.1-18.4,9.3-2.2.9-3.7,2.4-5,4.3-5.1,1.4-7.7,6.4-11.4,9.7-4,2.4-5,6.5-8.2,9.5-22.1,31.3-21.8,80.6,5.3,109.2h0c5.2,7.3,12.9,14.2,21,18.3,3.5,2.7,8.7,4.7,13,6.6,4.6,2,9.7,2.7,14.2,4.7,1.1.8,2-1,3.1,0,4.1,2.8,9.1-.2,13.3,1.9.9,5.8-1.8,11.8,0,17.4,1.8,4.3-1.2,8.6-.2,12.9,1.4,6.4-1.1,16.4,0,22.2,1.2,2.6.7,4.9.4,7.3-14.8.2-5.1-.1-16.3,5-6.3,4.8-11.1.5-16.2,3.8-3.5,1.8-7.6-.9-11.3-.1-.7.2-1.9-.3-1.7-1,.4-2-2.8-3.3-1.1-5.5.2-1.1-2-1.6-2.9-1.7-4.3.2-5.1-6.5-10.2-4.9-1,0-4.6,0-4.8-1.1,0-1.2-.8-2.1-1.2-3.2-1-4.5,3.8-4.2,5.9-2.1.3,2.3,1.3,3.6,3.8,2.7,1.6,1.7,3.5,1.2,5.4.8,0,.8-.3.9-.7,1.1-3.2,1.5-.6,5.8,2.2,4.5,2.3-.4,4.3.5,4.2,2.1-.1,2.1,1.3,3.4,1.5,5.3.2,2.3,2.5.4,3.9,1,1.3.3,2.9.9,3.8-.3,1.1-1.6,2.5-.2,3.8-.8,1.5-1.5,16.9-2.7,11.4-5.5-6.3.4-3.5-3.5-7.4-4.8-8-1,.8-3.2-11.5-1.6-9-1.8-2-7.7-5-11-2.6-1.7-5-3.9-8.5-3.5h0c5.8-4.3-1.2-8.7-5.2-10.6-1-.7-1.6-2.2-3.2-2.4-4.5,13.7-2.1-6.1-2.3-9.4-1.8.6-2.2,3.5-4.1,2.4-1.4-1.7-3.3-3-3.6-5.7-.2-1.6-.3-3.3-1.2-4.8-3.4-5.8-.1-12.7-3.7-18.4-2.7,7.5-.3,15.5-.7,23.2-1.1-1.3-1.7-3-3.1-3.8-2.3-1.1.4-3.2-1.1-4.4-.3-.2-.1-1-.6-1.3-1.1-.6-1.1-1.7-1.5-2.6-1.5-2.5-1-6.7-3.1-8.5-2,5.7,2.1,15.5,5.1,21,3.7,6.3,5.6,13.7,11.3,18.6.4.2-.1,1.5.8,1.4,1.8-.1,2.8,1.7,4.5,1.9.9.1,1.3,1,1.3,2-4.5.9-6.8-4.1-10.3-5.5-2.1-.7-2.6-1.8-2.4-3.8-.9,1.6-1.6,2.2-3.4,1.9-1.3,0-.8-1.2-1-2-.7-2.7-3.9-4.9-7.3-4.8,3.4,7.1-2.2,4-1.8,6.8,1.7,3.2-2.4,6.4-4.8,3.3-1.1-2.2-3.9-8.6-.8-9.9,6.9-11.2,7.6-20.3.8-31.8-1-11.9,7.5-4.8-.7-21.4-1.1,5,.3,10-.9,15.1-.4,2.5-1.6,5.1.2,7.5-.6,1.7,1.4,2.5,1.4,4,0,4,.2,8,.3,12,0,.3,0,.7-.2.9-1.6,1.5-1.5,3.7-2.4,5.5-1,3.3-.2,4.5-3.7,6.5-.6.7.2,2.4-1.1,2.7-2.3,1,2.1,2.6-1.6,5.5-2.8,2.2-2.9-6.3-5-7.6-.8-1-.2-2,1-2.5,16.8-2.6-3.3-19.3-9.8-22.7-3.9-1.2-1.2-5.1,0-7.3,3.8,1.1-.9-2.7,2.1-1.9,2.9,1.4.8-2.3,2-3.5,3.4-3.2-.4-6.2-.1-9.8-1,1.1-2,2.6-1.1,3.8,1.5,1.9-.7,3.2-.4,4.8-2,1.2-3,3.5-4.9,4.7-1.4.9-2.8,1.6-3.4,3.4-1,1.9-3.3-.8-2.8-2.3.7-2.4,0-5.7,1.4-7.8,1.6-1,2.2-2.9,3.8-4.1,1.1-.8,2.4-2.2,1.1-4-.2-1.9,1.2-8.2-2.1-8-.7.4-1.3.7-1.1,1.7,3.6,10.5-3.1,8.4-5,17.2-2.3,8.2,2.9,18.1,10.5,21.7,2.2.8,4.2,1.8,4.7,4.5,2.8,2.1.8,3.8-.4,5.6-1.1,1.8-2.9,1.2-4.5,1.4-2.4-.2-2.1,2.1-1,3.3,1.8,1.3,2.2,3.5,3.2,5.3,2.7,4.2,5.7,16.1-2.8,14.2-.1,2.4,0,4.8-1.8,6.7h0c0-1.4-1.5-.3-1.8-1.2-.4-1.1.9-1.4.9-2.2,0-3.3-2.5.7-3.1-2.1-.7-1.7-1.8-3.1-4-2.9-2.1.1-4-2.5-2.8-4.3,1.5-2.4,2.6,3.8,4.5,2.8,1.9-1,1.7.5,2.4,1.1.9.9,1.8,1.8,2.8,2.8q.5-3.2,3.3-3.6c7.3-2-5.3-15.3-3.7-20.6,0-.7-1.6-1.1-.2-2,1-.7,1.7-.2,2.5.4.8.6,1.8.6,2.6-.2.3-.3.5-.9.8-.7,1.5,1.7,2.2-1.9,1.1-2.4-2-.8-2.6-3.1-4.6-4-2.9-1.2-4.3-4.5-7.3-5.8-2.6-5.7-5.7-11.1-10.2-15.7-.6-.7-1.1-1.5-.3-2.2,2.2-.5,3.6,3.5,6,4.5-.2-2.1,1.3-3.6,1.1-5.5-.2-3.7,2.9-6.2,5.2-8.4,2-.2,1.1-15.3,0-16.1h0c0-.9.1-2.1-1.3-1.9-2.2.4-2.6-2.9-3.3-4.4,0-1-1.9-.6-1.5.4.4,1.4-.4,2.1-1.3,3.2-2.5,2.9-5.5,4.7-9.4,4.9-2.8.6-6.2,2.4-8.7-.5-.3-.3-.9-.4-1.4-.5-2.2-.4-2.6-2.8-4.6-3.2-1.8-.9-4.4-1.5-4.3-4.3.8-4.2-5-4.3-5.3-7.9-.3-2.6-.9-4.8-1.3-7.6.3-2-1.5-3.3-3.8-3.1-2.3.2-4.2-.3-5.9-1.8-2.1,6.2,1.9,14.5,8.6,15.3,4.4.7,1.8,6.4,4.5,9,2.4,3-2.6,7.8,2.6,9.1.6,1.2,1.6,2.2,3.2,2.3,5.4-.1-1.4,8.1,8.5,12.2-.1.6-.5.7-.9.8-1.7.6-1.6.8-.7,2.5.5.9.6,1.9,1.9,2.2,1.5.5-2.1,6.9-3.4,6.4-1.8-.4-2.8,1.3-4.3,1.5-1.6.2-.5,2.1-1.4,2.8-4.3.7-1.4,2.2-3.8,4-.6.3-.7.8-.3,1.3,1.5,2.7,2.8,6.1,6.8,4.9,4.9-2.5-3.6-13.5,5.1-11.1-.7-5.4,8.1-7.6,5-9.7-1.5-.8-2.1-2.3-3-3.6h0c1.9,0,3.3,1.6,5.2,1.6,1,2.6,4.1,3,5.5,5.3,0,.1-.2.2-.2.3.1,0,.2-.2.3-.3.5.4,2.2-.9,1.5,1.1-.3.9.3,1.7.9,2.2,2.1,1.6,2.4,3.7,2,6.1-.2,3.6.6,7-.3,10.5-7.9-1.7-7.2-9.1-15.1-12.7-6.1,1.3-3,9.9-4.9,14.3,0,3,3.8,13.1,6.7,14.3,8.1,4.5-7.9,7.4-.3,14,5.1,3.9.7,11.2-4.4,13-.5-2.9-2.4,1.1,0,0,.5,3.9,6.4,1.4,9.1,2.4,2.3-.6,3.7-3.8,2.7-5.8-1-2.4.2-4.3.5-6.5.7-3.1,2.6,2.2,4.2.6,1.4-1.4-1.7-2.1-.4-3.5,1.9.3,3.7,1.1,4.2,3.4.4,1.8,2.1,2.9,3.7,3.3,1.5.4,1.9-1.4,2.9-2.2.5.6,1.8.9,1,1.9-.9,1.1-.6,3.6-3.1,3.1-.2,0-.4.5-.7.6-2.8,2.2-2.2-2-4.2-2.6-4,3.6,1.4,8.4,1.1,12.8.4,5.3,7.1,6.6,7.6,12.1.6,2.6,4.5-1.2,4,2.7.2,4.4,4.4.5,4.5,3.7.3,2.4.4,2.4,2.9,2.4,1.1,0,2.4-.2,3.2.8,1.1,2.1,9.6,3.9,8.9.6,0,0,.2-.1.2-.2,1.5-.1,1.6,2,3,2,3.1,0,5.7,2.6,8.7,1,5.1-2.2,9,.9,12.3-5.3,1.9-4.5,6.2-3.1,6.6-6,1.6-6.3-5.3-7.2-2.4-13.5-10.5,3.4-2.9-2.7-7.2-2.5-1.2.8-3-.4-1.6-1.5,1-.6,2.9-.7,2.4-2.3-1.5-1.7-6.5,1.1-7.1-2.1.2-1.7,3.3-1,4.5-2.4-1.3-1.5-4.3-.8-4.1-3.3.8-2,5.5,0,7.4-2-.2-1.4-2.4-1.6-2-3,.5-3.3-2.7-5.1-2.5-8.4,4.7,1.5,3.4,10.3,9.6,10.5,2.6,0,3.9,3.9.6,3.5-.9-.1-7.2,0-6,1.6,1.7,1.8,2.5,4.5,4.3,6,1.6,1.3,1.6,2.3,1,3.8,1,.6,2.2,0,3,.7.8.8-.2,2,.6,3,1.3,0,2.8-1.7,3.3-1.2,4.3,2,9.3,2.5,13.1,6,.6.6,1.5.5,2.4.6,4,.3,1.8,5.1,5.6,5.7.7.3,1.8.6,1.6,1.6-1.1,2.2-4.8,2.2-6.9,3.2-2.2.8-2.9,3.8-4.6,5.7-1.5,2.7,2,8.4,3.1,10.8,7.3,7,19,1.1,27.5-1,1.3-.8,5-.7,4.7-2.7-2-.8-4.3,2.1-6.7,1.3-7.2.5-16.2,4.8-22.7-.3-2.5-1.3-.7-3.3-1.1-5.7,0-1.5.6-2.9,1.7-3.6,4.1-3.5,8.6-4.9,14-3.8.3,0,.6.5,1.2,0,2.9-3.6,4.2,3.3,5.2-1.1.7-.6,1.5-.8,2.3.1.8,1.2,3.4-.3,2.6-1.5-1.7-1.2,0-2,.4-2.6,2.1-3,5.8-3.7,8.6-5.7,2.4-3,10.7-3.7,12.8-1-.2,2.5-1.2,5.1.4,7.6.1.2,0,.6,0,.9.4,6.4-1.5,12.9.5,19.1-1.7,8.1-1.1,16.2-.9,24.3-.4,4.1-1.2,7.9.9,11.8-.5,5.7-2.4,11.7-.1,17.2ZM174.3,371.8c-4.4-1.8-2-3.5-2.5-7-.8-1.3-4.1-11.8-5.7-7.4-.1,1.7,1.5,2.7,1.2,4.4h0c-1.6.2-.4,1.9-1.5,2.7-.9.6-1.1,2-1,3.2,1.4,3.6-5.2,7.5-2.2,9.4,3.3,2.2,4.9-2.2,6.9-.7,3.1,2.5,8.2-1.6,4.7-4.5.5-.2,0-.4,0,0ZM156.1,315.2c-1.6.2-1.6-1.3-2.3-2.1-.7-.7-2.4.3-2.8-1.3-.5-1.1-.7,2-1.9,2-.5-1.2-.7-2.5-1.9-3.4q-.3,3.2-2.4,3c-.2-.3-.4-.8-.8-.2.3,0,.5.2.8.2,0,1.3.3,2.5,1.5,3.2,1.4.5.6,2.8-.9,2.3-1.4-.4-1.5.6-1.6,1.6,0,1.2.9,3.1-.8,3.6-.7.2-1.3-.5-1.3-1.1-.6-3.4-.6-7-3.6-9.2-.3,3.7,2.2,7.1,1.6,11.1,0,1.8,1.1,3.6.6,5.4-.5,3,3.1,2.9,4.7,2.9,3.1-1.5,4.2.3,5.3,2.6,1.3,3.4,3,1.4,5,2.9,1.2,1.4,4.4-1.7,1.8-1.9-4.7-2.2-6.1-8.5-12.4-8.2-1.1,0-1.8-1.8-1.3-3,.6-1.2,1.4-.2,2.1-.1,1.8.6,3.6,3.1,4.5,0,.3-.9,0-1.6-.2-2.4-1.2-5.2,5.3-4.8,8.2-3.4,1.4.8,2,.4,2.9-.4.3-.2.8-.1,1-.8-.9-.6-.8-1.8-1.3-2.7-1.1-1.5-4.2-3.3-4.6-.4h0ZM149.2,283.8c0,0-.2-.2-.3-.3,0,0,.2.2.3.3.2,4.9,3.6,8.5,5,12.9,2,6.3,9.3,10.7,8.7,17.9,0,4.9,2.4,3.8,5.7,5.2,3.2,4.3,6.8,11.9,13.2,8.9-2.5-3.1.3-5.7,2.5-8.1.4-.2.7-.7.3-1-1.7-4.3-5.2-6.8-8.2-10.2-2-2.9-4.4-4.9-8.2-4.9-2.2,0-2.7-.9-3.4-3.2-.1-3.2-3.7-4.9-3.7-8,0-3.8-5.6-2.3-7.4-5.3-1.7-1.3-1.8-4.2-4.5-4.2ZM170.5,257.4h0c.3-2.5,4.8-2.5,4.3-5.8-.3-2.7,1.9-2.4,3.7-2.9,4.9-1-2.9-4.8,1-5.6,4.9,1.5,2.5-1.6,3.7-4.2.7-2.3,4.3-2.2,3.9-4.7-1.2-3.9,5.3-4.7,3.1-8.5.9-2.2,3.1-3.5,1.6-6.4.3-2.1,1.3-4.4.5-6.7-1.1-1.5,2.3-3.3.6-4.1-2.1-.7-1.1-2.3-.4-3,2.9-2.3-.4-5.7,2.1-7.5,1.8-.8,2.3-1.1,1.9-2.5-.4-1.3,2.1-1.8.5-3.3-.7-.6-1.4-2.1.7-2.5,1.5-.8-1.3-1.5-1.6-2.4,4.8-3.4-2.7-5.2-1.4-9.1,2.8-3.6-.3-7.3-1.1-10.9-.6-7.4,2.4-14.4,1.3-21.8.2-2.7-4.8-4.3-6.3-2-.8,1.3-1.7,2.7-3.1,3.5-1.7,1-.7,2.9-1.8,4.3-4.3,6.2-3.3,14.5-3.3,21.7,0,5.7,2.6,12.4-.2,17.6-.7.4,0,1.8-.3,2.9-.5,1.5-.4,3.1,1.3,3.8-1.7,1.8-5.5,2.1-2.8,4.9,1.5,1.9,1.6,2,0,3.6-3.4,4.6-1.2,10.9-4.2,16-1,2.2-1.7,4.4-4,5.6-1,.5-2,1.3-2.3,2.5-2,4.4-6.2,7.3-9.4,10.9-1.5,1.4.3,4.5-2.9,4.2-.6,0-.9.5-1,1-.9,3-3.3,5.6-3.2,9,0,.7-.3,1.5-.8,2-1.1,1.1-.9,2.1-.6,3.4.4,1.7.8,3.5-1,4.9-2.3,3.9.2,8.5,0,12.7,1.4-.1,1.6-1.9,3-1.2,1,3.3.1,8,4.1,10.2,1.6.9,3.1,2.3,5.3,2.1,1.1-.1,2,.6,1.5,2-.3,1.1.3,2,.7,3,3.6,2,1.5-6.4-.8-7-.9-.6-1.7-1.4-3-1.5-1.2,0-1.4-.9-.8-2.1.9-1.7,2.5-1.2,3.8-1.4,1.3-.2,1.8.9,1.9,2,0,.4.2,1,.6,1,3.2.5,1.4,4.9,3,7,.4.5.6,1.9,0,2.4-1.4,1.2-.8,2.9-1.3,4.3-.5,1.6,0,2,1.9,2.2,8,.5,5.5,3.3,10,6.1,2.1-1.2-.2-4.6.8-6.4,3.2-5,3.4-11.3.4-16.3-2-1.7-1.6,2.7-3.3,2.4-.9-.1-1.7-.4-1.9-1.4.9-7.6-7.7-3.5-5.4-12.5,3-6.4-1.2-1.6-1.5-8.4-.8-3.5,3.8-3,4-4.6,0-1,0-2.4-1.6-2.6ZM183.6,260.7c-3.1,1-3.4,3.6-4.9,5.8-3.6,4.3-3,8.7-.1,11.4,2.5,2.3,5,4.7,6.7,7.7.5.9,2.3,1,1.5,3-.4,1.1.1,2.6-.9,3.7-1.4,1.8-.6,4.3-1.5,6.3-4.1,6.9.7,13.9,2.9,20.2,1.8,5.4-3.2,5.6-2.9,8.8,1.2,3.5.4,5.5-3.5,5.1-2.4-.3-5.3,0-6.9-2.2-1.8-2.4-4.6-3.9-6.1-6.5-.4-.9-2.2-.3-2,.7,1,4.1-.7,9.8,4.4,11.8,2.9.9.3,5.3,4.8,5.5,3-.4,3.4,2.1,4.9,3.8,4.8,3.4,17.7.1,14.9-7.1-.8-2,1.1-4.6,1.8-6.3,1.2-5.3,3-6.4-1-10.8-1.5-1.9,1.9-.9,1.1-7.4.7-3.6-3-3.6-5.5-4.4-5-1.3-5-9.1,0-8.7,5,1.4,10,2.5,11-4.1,0-5.3.3-10.8-4.5-14.7-1.6-2-5.4-10.1-2.9-11.9,1.2-1.8,2.1-4.4,2.2-6.6-.2-1.4,1-2.6.7-4.2-.5-1.5,2.7-7-1.1-5.4-2.2,3.8-2.5,10.2-4.6,13.9-4.6,5.5,0,14.2,4.1,18.7,1.3,1.3,2,2.4,2.1,4.2.5,4.5-4.4,4.6-7.4,3.3-1.5-.6-1.9-4.8-1.5-6.4.2-2.9-4.7-6.1-6.4-8.7-4.7-5.2-2.1-12.7.5-18.3ZM147,249c-1.2,0-1.5.8-1.5,1.5-.1,3.2-2.1,5.4-3.3,8.1-1.3,4.7-2.7,9.8-2.2,14.8.2,2.6-2.8-.4-3.3,5-.8,4.1-7.2,4.5-6,9.3.4,1.4.5,2.6-.1,4.2-1.1,2.3.3,5,1.5,7.1.3,1.7.3,3.5,2.9,2.7,2.1,2.2,4.3,4,7.6,3.6,1.4,0,2.8.8,3.9-.9,2.8-2.1,1.5,5.1,9.4,3.2,1.1-.1,1.1-2.2,0-2.2-2.2,0-4.1,0-5.7-1.8-1.3-1-.4-2.2-.4-3.1,0-1.1,1.4-.8,2.3-.4,1.2.3.8-1.2.6-1.8-.1-1.2-1.6-1.5-1.7-2.8-.3-2.3-1.5-4.3-2.8-6.1-3.2-5.4.7-13.7-5.3-18-3.1-2.3.9-6.1.7-9,.9-4.3,5.1-8.4,3.4-13.2ZM272.1,479.1c1.4-2.5,4-8.6.7-9.7-1.3-.1-1.9-1.2-2.7-2-4.1-4.4-5,3.5-8.3,2.2-7.8-4.1-5,7.6-23.9,5.5-6.9-1.3.9,8.1.6,11,1.9-1,1.6-2.8,2.1-4.2,2.6-7.4,13.8.9,18,3.2,5.6,5.9-3.9,10,9.1,7.1,2.4-5.4,3.4-10.3-4.2-10.6-2.9-.2-7.1-1.9-7.4-4.9.3-.8.9-1.7,1.8-1.5,2.8.4,5.4-1,8.2-.2,3.2.9,5.2.2,6,4.1ZM186.1,143.4c2.9-4.3,8.5-4.8,10.4.7.8,1.6,3.6-.2,3.5-1.7,2.6-7.6,6.8-15.7,4.9-24.1-.5,0-.7.3-.9.5-3,5.9-3.7-3.6-5.9.3,0,2.4-1.9,4.3-2.3,6.5-.5,2.8-4.1,2.6-4.5,5.3-2,.8-3.6-.9-3.7,2.6.4,4.7-5.1,5.8-1.5,9.8ZM221,373.2c1,5.9-12.8,7.6-5.5,12.4.8.7,1.5-.1,1.8,0,1.2.5,2,2.1,3.7,1.7,2.5,3.3,6.5,5.8,8.2,10.1.2.8,2,1.4,2,.3.9-7.2-6.8-7.3-2.4-13.3,2.3-1.6,2-15.2-1.6-11.8-.6,1.6-2.3,1-2-.6,0-.7-.1-1.5.4-2.1,1.3-2.1.1-5.8-2.2-6.4-2.5-.2-2.3,4.6-2.6,6.1-.3,1.1.7,2.2.2,3.6ZM195.8,449.6c.5,3.8-.7,7-4.3,3.7-.8-.6-1.8.9-.9,1.3,2.6.8,1.2,4.3,3.5,5,1.3.4,2.2,1.5,3.3,2.3,3.9,4.3,8.9.5,4.3-3.4-3.9-2-1.2-7.2-5.9-8.9ZM215,360.7c2.3-1.7,1-4.5,2.9-6,3.5-2.9,6.4-7.3,6.4-12-3.8,2.9-5.7,7.6-8.7,11.3.6,2.2-.2,4.1-.6,6.7ZM213.1,363.8c-.9,4.2-6,7-6.2,11.2.7.7,1.6.4,2.2-.3,4.1-3.2,4.8-4.9,4.1-10.9ZM192.9,392.6c.6-2.2-.2-4.5,1.5-6.3.4-.5-1.5-3.4-2.2-3.5-1.9.8-.5,4.8-1.3,6.6-.3,1.4.4,2.6,2.1,3.2ZM211.9,357.2c1.1-.3,1.5-2.4.3-2.6-1.2-.3-1.1,2.1-.3,2.6ZM216.4,361.9c0-.2-.1-.3-.2-.5-.4.2-.1.4,0,.7,0,0,.2-.1.2-.2Z"/>
        <path class="cls-2" d="M329.3,104.1c1.2-4.5.7-8.6-.3-13,.2-4.4,1.7-8.9.8-13.3-.5-1.8-.5-3.7.2-5.5,55.5,27.2,120.2,54.3,182.7,34.8,25.3-6.9,21.3-19.9,20.1,20.7.6,19.5.1,39.4-.3,59,1.1,13-.6,26.7.5,39.8-1.7,5.7,1.4,11.8.3,17.7,0,11.3-.5,22.4,0,33.7,0,31,1.4,62.3-7.8,92.4-.5,1.9-.6,4.2-2.5,5.6-.3.2-.3.8-.3,1.2-.7,5.4-3.7,10.1-5.3,15.2-.3.9-.4,2.1-1.7,2.4-5.1,11.8-12.1,23.9-20.3,33.9-22,31.9-54.5,55.6-87.3,75.1-24.8,12.6-50.9,25.8-78.1,31.5-2.6-5.8.3-12.2,0-18.1-3.4-6,.8-12.5-1-18.9-.9-5.4.7-11,1.2-16.4-2-6.1,0-12.7-.5-19.1,0-.3.1-.7,0-.9-1.6-2.5-.6-5-.4-7.5,3.5-2.9,10-1.4,13.7,1,.8.6,1.8,1.4,2.7,1.5,1.9.3,7.9,3.9,6.3,6-2,4.4,5.3-.7,5.7,3,.7-.6,1.6-1.5,2.3-.9,1.9,1.6,3.9-.8,5.7.5,6.2-3.5,17.8,7.6,11.7,13.3-8.8,5.7-20.2-1.6-29.2-.5,9.8,5.9,36.9,12.1,34.6-7,.4-8.3-13.3-7.8-10.2-11.1,2.8-1.2,2.9-5.2,5.6-6.1,5.2-.8,8.5-6.4,14.3-5.9,1.3-.8,2.6-1.6,3.9-.2,1,1.1,2.4-.2,1.9-1.4-.1-.6-.7-1.1,0-1.8.9-.1,1.9-.2,2.7-.4.9-4.3,2.7-7.9,5.7-10.8-2.4-2.1-6,.7-8.1-1.1-.8-3.9,7.2-2,7.7-7.6.9-2.4,1.8-5.1,4.3-6.2.8-.7,2.1,1.1,1,1.6-2.5,1-1.8,4.2-2.9,6.2-4.1,8.4,2.9,2.3,4.8,5.8.3,2.2-2.8,1.5-3,3.8,1.2.7,3.2.5,3.3,2.7-1.9,1.2-5.1-.9-6.3,1.4-.6,2,2.7,1.2,2.5,3-.7,1.8-3.1.5-4.5,1.3.3,1.2,1.5,1.6,1.4,2.8-1.7.2-6.7-.9-5.5,2.1,1.9,3.4-3.9,3.1-2,11.6,0,.4.4.8.8.9,3.1.2,3.9,3.1,5.5,4.9,2.6,4,6.8,2.7,10.5,4.1,1.3.6,2.9,1.1,3.9.3,1.9-1.5,4.5-.9,6.4-2.3.5-.4,1.2-.3,1.8,0,1.9.6,5.4,1.2,6.9-.2,1.9-4.7,9.4.1,8.8-5-.2-2.9,3.7-.4,3.4-4,0-.6-.4-1.3.5-1.8,2.1,0,5.4,1.9,5-1.7,0-2,.9-3.2,2.5-4.3,4.4-2.2,2.6-7.3,5.2-10.8,1.5-2,3.2-6.2,1-8.1-2.1,0-2.3,4.9-5.9,1.5-.9-1-1.3-2.4-2.5-3.2-.3-.2-.3-.8.1-1.1,1.1-.4,1.9,1.5,2.9,1.9,1.3.8,2.7.5,2.8-1,0-1.5,1.9-2.2,1.3-3.7,1.5-.6,4.2-5.2,5.1-1.7,0,.8,0,1.3,1.2,1.3,9.5-.2-6.7,16.1,10.2,12.8,1.7-.2,3.7-.2,4.7-2.1-4.4-2.3-8-5.3-6.5-10.7.9-3.6,6.5-6.1,1.7-9.4-5.2-4-2-5.5,1.2-8.8,4.5-7.1,5.3-14.9,3.6-23.1-1.9-5.3-7.1-1.7-8.9,1.7-1.2,1.7-10.1,12.3-10.6,6.6.3-3.8.3-7.6.1-11.4,1.7-6.8,9.3-10.5,13.5-15.8,3.3-3,9-3.4,9.3-9.1.3-4,.4-3.9,4.2-4,.7,0,1.6.3,1.9-.7,2.3-4.4-.4-9.3,2.5-13.3,1.9-2-.3-5.9,3.3-6.7,2.9-1.2,6.4-1.9,7.6-5.5,1.9-.8.9-2.8,1.7-4.1,1.1-1.9,1-3.8-.1-5.7-1.6,2.1-4,1.6-6.1,1.9-4.2.9-4.6,6.8-4.4,10.4,0,1.9-2.2,3.3-3.5,4.6-1.2.7-1.7,1.9-1.8,3.2-.4,4.3-6.1,4.6-8.6,7.5-3.6,3.2-8,2.9-12.2,1.6-5.5,0-7.6-4.7-10.1-8.5-1.7,1.6-1.3,4.6-4.4,4.8-2.9,3.9-.9,9.9-2.1,14.6.3,7,6.3,3.2,6.9,17.3,2.8-1.1,2.7-4.6,5.6-5.5,2.6-1.7,3,1.7.9,2.7-2.5,0-1.1,3.2-3.1,3.6-.5,0-1.2.3-1.2.8-.1,1.9-2,3-2.3,4.7-.6,3.5-4.2,5.3-5,8.7,0,.4-.6.2-.8.4-2.4,2.6-6.4,3.4-8.1,6.9-.1.3-.7.4-1.1.5-2.3,1.1-1.5,5,1.1,4.3,3.6.2,2.6-3.3,6.6,1.7-1.8.6-2.6,1.6-2.8,3.7-.2,4.1-3.5,7.5-5,11.2-1,5.9,1.4,4.3,5.3,5.7,3.2.7,6.1-3.3,8.8-4.9,1.5-1.4-.7-3.3,1.2-4.8,2.2-2.6,2.8-6.3,6-7.8,4.5-2.6,2.8-8.9,8-10.2.1,1.6-1.5,2.3-1.3,3.7.4,2.8-2.4,4.5-2.5,7.2,0,.2-.2.4-.4.5-1.5.5-1.9,2.5-3.8,2.4-3.2.6,1,6.3-2.2,6.3-5.1.3-1.3,7.8-7.3,7.8-1.4.2-2.2,1.1-3,2.1-.5.6-.2,2.1-1.7,1.8-1.2-.2-.5-1.5-1.1-2-.1-.1-.4,0-.7-.2-2.1,4.5,6.6,9,2,10.5-.5.2-.8.6-1,1.1-1,2.9-4,2.7-6.4,2.5-10.6,1.6-13.5,20.3-26.9,10.9,1-.3,2.1-.3,3.1,0,4.5,1.7,11.1-1.7,10.6-6.9-1.1,1.6-2.1,3.1-3.9,2.7-2.3-1-12.2-1.5-9.8-5.4,5.2-4.3,1.2-2.1,1.9-5.1,1.5.2,5.7,0,3-2.2-3.1-1.7-.5-5.2-2.7-7.4-.6-.5-.5-1.2,0-1.7,1.3-1.6,4.6-1.7,4.7.9.1,5.8,4.3,9,8,12.8,5.4,6.1,6.1-4.1,11.9-1.5,5,1.7,5.1-3.8,3-6.8-.8-.8-1.5-1.6-.7-3,.8-2-2.5-1.9-3.7-2.2-4.3-2.6-.1-12.9,3-15.9,5.7-9.6-7-2.7-5.8-9.7,2.2-11,16.6-5.9,17-27.5-1.9-11.2-8.3-4.9-6.5-22.3-1.9,1.6-1.1,4.2-2.9,5.5,0,0,0,.5.1.6,1.6,1.4.8,3.2.6,4.7-.4,5.9,9.4,8.1,5.7,16.4-.7,1.3-2,1.7-2.3.6-2.5-4.3-8.6-5.7-8.6-11.5.7-14-.4-15.9-9-26.8-.5,5.8,3.2,9.7,6.3,13.7,3.2,1.1,1.6,5.3,1.6,7.9-1.5,10.8-3.7,11,5.4,17.8,2.6,3.9-3.5,5.5-5.6,7.7-1.5,1.2-3.3,2.1-4,4.1-.3.9-1.1,1.3-1.8,1.7-2.5,1.5-3.4,4.3-5.4,6.3-.5.5-.5,1.2-.5,1.8-1.1,7.9,8.9,3.7,6.6,9.6-.7,2.4-.6,6-4,5.8-1.4,0-2.1-.5-1.8-1.8.4-1.5,0-2.4-1-3.5-.9-1-.9-2.7-2.7-3.1-.4,0-.7-.6-.6-1,.6-2.3-1.5-4-1.2-6.2,0-.6-.5-1.4-1-1.9-2.1-1.7-.4-4-1.2-6.1-2-6.7,4.1-12.4,2.2-18.8-1.6-4.5.3-9.2-1.5-13.7-1.1,1.1-.7,3-1.9,3.9-4.7,3.9,1.5,9.1,1.5,13.8.7,3.8-3.4,5.8-2.9,9.6.2,3.2-3.1,6-1.8,9,1.2,6.4,4,12.1,7,17.7-.3,3.3-1.2,10.6-5.9,7.3-.8-1.4-3.1-2.9-.3-4.6.1,0-.4.1-.2-.1-3.2-1.4-4.3-1.2-2.5-4.8-7.6,0-5.2,5.4-9.1,6.4-.9.2-2.2-.4-2.7.4-1.6,2.6-5.6,2.2-6.5,5.5,0,.2-.5.3-.8.3-1.8-.4-3.1,3.3-4.5,1.2-.5-1,0-1.3,1-1.8,4.4-1.5,6.3-6.5,9.2-9.6,2.7-2.6,3.1-6.4,5.5-8.9.6-1.3.5-3.6,2-4.4,1.5-.7,1.6-2,1.9-3.4-.3-4,4-8,1.5-11.5-.3,2.5-1.6,4.3-2.7,5.9-1.2,1.9-.5,4.9-2.4,5.8-2.2,1.1-1.2,4.1-3.6,4.6-1.7-7.6,3.5-16.9-.7-24.1-4,5-.1,12.7-2.6,18.4-2.8,4.2-2.4,14.5-9.4,8.7-1.9,3.7,2.6,11.2-.5,13.1-2.1-.6-.2-3.5-1.6-5-3.7,4.5-16.3,7-8.6,14.1l-.2.2c-4-1.1-11.3,3.4-9,7.7,2.3,3.1,1.5,3.4-1.3,5.3-3,3.4-8.8-1.4-11.2,2.4-.4,1.1-1.2,1.6-2.5,1.2-3.9-1.7-2.6,5.1-6.7,4.3-4.1-.5-3.7,2.4-.4,3.3,5.9,1,13.3,1.9,18,4.7-2.2,2.6-5.4,2.1-8.6.6-3.6-2-7.4-.2-10.9-1.6-1.9-1.1-4.1-1.6-6.1-2.5-.9-.4-2.1-.8-2.6-1.5-2.7-4-7.5-1.4-11.4-2.4.3-2.5.8-4.8-.4-7.3-1.1-5.8,1.4-15.9,0-22.2-1-4.3,2-8.6.2-12.9-1.7-5.6,1-11.6,0-17.4,49.5-.5,90.5-43.3,88.1-92.5-.9-48.6-39.6-84.9-87.6-86.8-.3-5.9-.9-11.8-.3-17.7,57.2-1.9,33.6,17.8,62.6-22.5.6-.9,2.1-1.1,2.2-2.5,0-1.6,1.2-2.6,2.1-3.7,2.2-2.8,4.8-5.3,6.6-8.2,2.3-3.7,6.6-5.4,8.1-9.6,8.9-7.1,15.5-9,26.8-9.1-3-9.8-15.9-13.1-24.7-9-5.9,1.5-9.9,6.3-15.3,9-4.7,2.2-5.2-12.2-19.3-3.5-9.8,6.3-1,17.1-3.1,25.5-1.9,7-11.4,6.3-15.3,1.3-.7-.7-1.2-1.2-2.1-.4-6.9,4.9-21.2,7.5-25.4-1.6-4.6-9.3-.8-25.6,10.6-27.9,14.3-1.1,17.8,7.8,14.3,20.1,12.1-6.2,9.7-28-2.9-32.3-5.7-1.8-11.7-2.3-17.2,1-6.6,3-8.3-9.8-8.2-14.2ZM470.5,141c-3.4-.5-6.8-1.2-6.9,3.4-.1,1.3-.3,2.7-.1,4.1.2,1.6-1,3.3,0,4.6,2.3,2.7.9,5.8,1.2,8.7.2,2.2-1.2,4.5-.2,6.9.2.5-.3.7-.6,1-1.4,1.6-.4,3.7-1.2,5.4,2.7,3.8-3.6,7.2-.6,10.3-.3,1.1-2,.7-2.2,2q3,2.4-.2,4c2.1,1.2,2.5,4,4.9,5,.2,0,.3.8.3,1.2-.5,3.8,5.6,7.5.6,9.8,2.3,3.9,2.2,3-.5,5.4,5.3,6.5-1.6,4.9,1.2,8,3.1,1.9.7,4.6,2.6,6.2,1.6,1.7,4.3,4,1.9,6.3,8.7,4,2.2,7.3,7.2,8,1.4.3,2.1.8,1.7,2.6-2.2,4.7,8.6,1.9,3.3,7.1,10.6,5,.4,6,5.6,7.8,1.2.5,2.7.8,2.6,2.3-.1,1.6,1.3,3.5-.9,4.9-1.1.7-1.1,2.1-.7,3.5,2.7,13.8-6.8,4.7-5,15.5-1.1.4-2.2.2-3.2,0-1.4-.3-.5-2-1.5-2.6-3.1,2.1-2.7,6.1-3.4,9.4-.4,4,5,5.9,3.4,10.3-.3.8.3,1.4,1.2,1.5,2.5-.2-.1-3.8,5.5-4.3,6,.7,4.2-6,4.2-9.8-1.1-5,6.2-13.3,9.9-7.7-.8,3-6.2,2.4-6.7,6.8-.8,1.5,1.5,2.5,1.8.7.5-4.4,6.4-1.3,7.2-5.6,0-.6.7-1,1.3-1.3,3.5-1.8-.3-7.3,4.5-8.2,4.1-6.4-.8-10.9.2-16.4.2-.6-.2-1.2-.6-1.7-3.2-4-1.5-10.8-6.1-13.5-.9-.5-1.5-1.1-1.7-2-2.3-6.9-9-11-13.1-16.8-2.6-3.8-3.9-8.1-5.2-12.2,0-3.2-.7-7.2-3.2-9.3-3-2,3.2-3-.3-6-2.3-2.1,2.2-1.3,0-5.3-3.8-10.8.6-22.3-1.5-33.2.3-4.5-2.3-8.7-4.6-12.2-1.6-1.1-1.9-2.6-2.2-4.3,1.4-.7,2.3,2.3,3.4.5,2.3-4.1-4.7-5.7-3.2-10,.4-2.9-6.4-1.9-7.6-6.6-1.6-1.9-1.4-8.4-5.1-5.7-.8.5-1.3.4-1.9-.2-.5-.4-.5-1.4-1.5-1.4-2.8,2.8,2.4,25,6.8,25.6,1.5.2,1-1.4,1.6-1.8,1-.8.8-2.6,2.3-2.7,1.7-.2,5.6-.4,5.1,2.3ZM458.7,253.6c2.1,1.2,2.5,2.9,2.5,4.9-.1,9.1,8.3,12.6.1,21.7-4.8,3.9-7.8,21.3,1.7,19.8,2.2-.3,5.6-2.5,7.3-.2,5.6,10.1-5.3,6.1-7.1,11.2,0,2.4-1.1,4.7,0,7.1.4.9.3,2-.3,2.7-2.7,3.7-1.8,10.7,1.4,13.8.7.5.4,1.4.2,2-3.2,7.5,13.4,11.8,15.5,4.9.3-1,1.3-2.6,3-2.4,5.6.8,3.2-5.1,6.4-7,3.9-1.2,2.6-5.6,3.3-8.7,0-.5.3-1-.3-1.4-6.3,1.4-6.1,9.3-15.5,7.6-3.1-.3-3.1-.4-2.7-3.5.2-1.6.4-3.1-1.5-4.2-4.4-4.2,1.8-10.8,3.4-15.1.2-3.1,1.3-6.3-.8-9.2-.6-1.8,0-3.8-1.3-5.6-1.3-2.6-2.5-5.3-1.1-8.3.5-1.2,2.6-1.9,1.7-3.3-.8-.9-5.7,4.4-5,5.4,2.7,7.1-9.6,9.9-8.8,2.6.3-3.2,3.6-4.5,4.1-7.4,2-.6,2.6-2.4,2.7-4.2.7-4.5,3-9.2-1.6-12.3-3.4-2.1,0-16-7.5-11.1ZM513.2,253.4c.8,2.1,0,4.4,1.3,5.4,2.4,1.9,2.2,4.5,2.8,7,1,3.1-2.8,2.5-3.3,4.8-.6,3.2-1.9,6.3-1.8,9.5.2,4.7-3,8.1-3.6,12.3-.5,1.4-2.7,4.6.5,4.4,3.1.1,0,2.2,1.1,3.3,1.5.3,2.6,1.8,4.4,2,9.7.9,14.2-9.2,13.3-17.6.4-2.7-.2-4.1-2.8-4.9-4-.9-2.2-5.4-4.8-6.9-4.1-.8,1.9-14.4-7.1-19.3ZM478.2,327.8c3.1-1.3,6.8-1.9,8.4-5.3.2-2.2,2.2-2.2,3.3-3.4.2-4.2,5.6-1.7,5.9-5.1.7-3.2.5-6.8,2.2-9.6,1.8-1,16.8-27.1,8.9-21.4-2.4,4.9-7.1,4.3-7.8,6.8-.6,2.4-.8,5-3.1,6.6-.3.2-.6.7-.6,1.1-.2,3.2-2.6,4.1-5.1,4.5-4.2.5-5.2,2.5-6.9,5.9-3.1,1-4.4,4-7,5.7-1.7,1.1-.9,3.3-1.5,4.9-.4,1,.8,1.4,1.4,1.8,3.3,1.9.4,4.9,1.8,7.5ZM423.3,472.9c-21,2.1-16.7-6.4-24.7-4.9-4.5,1.9-4.4-4.3-8.9-3.4-2.3,0-.9,2.9-2.6,3.4-4.2.9-3.1,7.1-.2,9,.7-1.3.9-3,2.5-3.2,3,.2,14.3-2.8,12.9,2.4-1.3,5-9.8,2.9-12.9,6.7-1.5,5.1,3.4,10.6,8.8,8.7-2.5-9.2,8.8-12.2,15.3-14.8,6.4-1.3,2.8,4.9,6.6,6.6,2-3.1,2.2-6.6,3-10.5ZM429.5,369.9c-4.2,11.6,5.9,13.3-.8,21.3-1.3,1.5-1.1,3.3-1.4,5-.3,2.2,2.4,1,2.7-.4.9-3.2,4.2-4.8,5.1-8,1.4-2.3,12.9-5.3,10-8.5-4.8-3.8-8.3-5.7-7-12.7-.1-5.8-8-4.9-4.5,3.9.3,1.1-1.3,1.9-1.5.6-.4-1.1-1.5-1-2.6-1.3ZM495.1,374.2c2.4.3,3.8-1.7,1.5-3.3-1.8-2-3.2-4.1-2.8-6.9-1.1-2.6-2.5-4.9-2-8,0-.4,0-.9-.6-1-1.8,0-1.1,4-3.4,5-.8.6-1,1.6-.7,2.6,2.7,5.9-4.4,5.6-2.6,10.7,2.3,2.3,5-2,7.7.4.9.6,1.7.6,2.9.6ZM489.6,385.5c3.9-3.2-1.9-2.2-2.6-4.6-.8-3.4-5.9-1.6-7.1-5-1.2-3.3-4.1-3,0-5.6.4-.8,0-1.4-.6-1.9-1.5-.7-1.6,1.9-2.8,2.4-4.7,2.5,2.3,4.7,2.7,7.6,0,4,5.6,2.1,5.2,6.3-1.1,10.1,3.1,10,7.9,2-1-.4-1.9-.8-2.8-1.2ZM510,323.7c4.1,1.3,7.5-6.2,2.9-7.5-3.8-1.5.9-3.1,0-5.2-.5-.8-1.1-.6-1.9-.5-2.5.3-5.1-.4-7.5.9-2.6-1.4-4,1-5.1,3.1-.3.5-.6,1.2,0,1.7.5.4,1.3.9,1.7.5,1.9-1.7,4.2-.2,6.3-.7,3.9-.5,3.6,5,3.5,7.7ZM518.9,318c-4.1.7.3,7-5.6,7.4-5.2.8-7.4,5.8-11.5,8.4-.9.5-.2,1.2.7,1.5,6.8,1.4,5.1-6.8,10.3-5.8,2.4.3,5.6.5,5.4-2.9-.3-3,1.4-5.6.6-8.7ZM458.3,461c3.1.2,4.2-3.8,6.9-4.9,1.5-.6,1.1-3.4-.5-4.1-1.1-.4-1.4-1-1.4-2.1,0-.7-.2-1.6-1.1-1.6-2.6,1.9-1.5,7.2-5.6,8.8-2.4,1.4-.9,4.5,1.7,3.9ZM475.8,279.8c4.3-2,6.2-6.7,6.1-11.2,0-1.9-1.4-3.4-1.6-5.3-.2-1.1-2.5-.9-1.8.5.1,2.8,1.8,5.9.4,8.5-1.2,1.6-1.4,3.7-2.9,5.1-.7.6-.4,1.5-.2,2.4ZM451.9,374.3c.5-4.6-2.8-6.5-4.9-9.4-1.2,4.7-.9,5.3,4.9,9.4ZM467,381.4c-1,.8-2.4,1.1-2.1,2.5.7,2-.1,4.9,1.1,6.5.3,0,.7,0,.8-.3,2.2-3,1.1-5.2.2-8.7ZM505.4,305.1c1.1.2,5.1-1.8,3.7-3.6-.3-.4-.9-.7-1.3-.2-.9,1-2.1.7-3.1.9-3.1.3-2.7,3.4.7,2.9ZM512.9,252.7h.1c0,.1,0,0,0,0h-.2Z"/>
        <path class="cls-1" d="M522.7,490.1c-3.3,3.5-6.8,7.8-11,10.7-1.3,2.5-4.5,3.3-5.8,5.8-.3.5-.8,1-1.5.8-.5-.2-.9,0-1.1.5-1.8,3.5-5.9,4.6-7.9,7.9-2.9.8-5.3,3.2-7.8,5.1-2.3,2.6-5.4,3.2-7.6,6-4.5,3-9.2,6.2-13.3,9.7-2.4,0-3.6,1.5-5,3.2-.4.5-1,2.4-2.5,1.1-3.3,2.3-6.6,4.8-10.4,6.3-1,.4-1,2.1-2.6,1.6-1.5-.4-1,1.6-1.9,1.9-7.3,3.2-14,7.9-21.4,10.6-9.6,6-19.8,10.7-30.4,14.8-8.9,4.3-18.4,8.9-27.7,12.2-2.7.7-4.9,3-7.9,2.5-.5,0-.7.3-1,.6-4.4,2.8-10.1,3.9-14.8,5.9-2.9,2-5.4.7-8.1-.2-12.3-3.1-24.3-7-36.5-10.5-33.6-10.8-65.6-26.7-97.1-42.8-5.2-4.8-12.5-6.1-17.6-11.2-2.4-3-7.1-2.7-9.4-5.8-.8-1.8-3.2-1.6-4.8-2.2.5-1.7-1.1-1.6-1.9-2.2-6-4.8-12.8-9.1-19.2-13.5-.8-.5-1.8-1-1.9-2-.1-2.9-2.3-5-2.8-7.7-5.9-14.5-17.9-25.9-31.4-33.5-4.7-3.5,4.6-7.4,6.2-10.4,1.1-4.3,3.4-2,4.5-4.2,0-1.5,1.6-1.7,2.1-2.8,1.2-2,4-2.5,4.4-5,2.3,1,2.4-1.6,3.7-2.3,1.4-.7,1.7-2.7,2.9-3.5,14.2-13.1,7.3-10.7,20,5.5,2.6,4.1,6.9,6.6,9.1,11,1.9,3.7,6.3,5.3,8,9.2,6.8,6.1,12.7,13.1,20,18.5,3.2,3.1,7,5.2,10,8.6,1.7,2.4,5,2.3,6.8,4.5,8.7,6.7,18.1,12.8,27.7,18.2,1.5.8,2.1,3,4.2,2.6,4.7,3.5,10.5,4.8,15.5,7.9,1.1.7,1.9,2.5,3.7,1.5,1,2,3.7.9,4.9,2.9,1,1.6,3.2.8,4.8,1.7,6.4,2.7,12.9,5.4,19.5,7.8,10.2,3.4,20.3,6.7,30.5,9.9,1.3.9,3-.5,4.2.4,1.8,1.7,4.2.8,6.1,1.6,8.4-1,16.1-5.7,24.5-7.3,9.8-2.3,18.8-7.1,28.3-10.3,1.5-.4,2.7-.8,3.6-2,.4-.5.9-.9,1.6-.6.5.2,1.1,0,1.5-.4,2.5-2.7,6.3-2.8,9.3-4.5,1.1-.6,2-1.9,3.3-1.9,1.5,0,2.3-.8,3.1-1.8.8-1.1,2.3-.6,3.4-1.3,5-3.9,12.5-5.6,16-10.9.8-.2.3,1.4,1.8.5,7.7-5.7,16.1-10.6,23.9-16.3,2.3-3.6,6.2-4.8,9.2-7.5,10.3-8.4,20.1-17.1,29.3-26.5.8-3.4,4-4.8,6.3-6.9,5.8-7.9,12.1-15.2,17.4-23.5,2.5-2.2,7.6-16.1,10.6-13.7,1.6,1.6,3.9,2.4,5,4.7.4.9,1.3,1.9,2.2,2.2,1.8.5,1.4,2.8,3.1,3.2,3.4,1.6,4.4,6,8,7.6,2.8,1.2,3.9,4.3,6.1,6.1,3.3,3.4,7,6.4,9.8,10.2,2-.7,2.5,1.4,3.8,2.1,2.2,1.2-2.4,2.9-3.6,2.9-3.3,1-5.1,4.9-8.7,5.7-4.8,3.4-8.6,8.7-12.8,12.9-4.1,6.1-7.8,13.2-12.5,18.5,0,0-.1,0-.2-.1,0,0,.1,0,.2.1ZM250.4,556.8c.2.3.4.8.8.2l-.8-.3c.1-2.2-1.8-3.6-2.1-5.7-.3-1.3-2.5-1-2.2.4.2,1.4-.2,2.8-.3,4.3,1.8-.4,3.1.8,4.7.9ZM499.4,463.7c.2,0,0,.5.3.5-.9-1.6-1.4-3.3-2.7-1.8-2.6,2.2-6.5,3.7-6.6,7.6,0,.5.4.7.8.6h0c.3,1.1.7,2.2,1.1,3.4,1.3-.6.9-1.5.8-2.3-.2-3.5,3.5-6.4,6.3-8ZM479.9,503.3c.1,1.2.8,2.1,1.2,3.2.4.9-.4,2.2,1.1,2.9-1-2.5,2.2-5.8-2.3-6.1.3-.8,1.4-.3,1.8-1.1-2.2-3.9-4.3-9.3-8.6-11.2-2.1-.5-4.2-2.6-6.7-.9,10.3,2.2,5.8,9.9,12,10.5.7.5.7,2.1,1.5,2.7ZM485.7,494.4c1.5-.6,3-1.2,4.6-2.3-7.7-.5-10.6-3-12.9-10.4-1.7,5.9,1.5,12.6,8,13,0,0,.2-.2.3-.3ZM227.1,525.3c0-.1-.1-.3-.3-.3l.3.3c0,2.5-2.9,3.6-3.3,5.7-.7.9-2.2-.7-2.6.8,0,.4.3.5.6.6,3.8,1-1.1,6.5-3.6,6.1-.4,0-.9.6-.6,1.2.9.4,1.9,0,2.9.5-.9,1.5-.6,2.7.8,3.7,1.4.9,1.9-.5,3.5-1.1-3.9-.8-1.4-5.4,1-6.1.4-.2,1.3-.3.9-.9-1.6-2.9,4.8-5.8.5-10.4ZM393.8,546.7c-.3,0-.8,0-.9,0-1.1-1.3-2.1-.2-3.2,0-1.5.4-1.8,1.5-2.2,3.4,2.4-1.7,3.1-.1,3.6,1.2,1.9,4.1,3.1,8.2,3,12.8.3.4.8.9,1.2.2,1.1-2,3.1-2.4,5.3-3-3.9-.4-7.3-11.1-6.9-14.6,4-2.6,6.5-1.7,7.6,3.1.5,2.9,4.6,5.7,3.3,8.4-.5.5.4,1.4.9,1,1.3-1.3,3.2-1.2,4.9-2.2-5.2-1.5-4.9-7-7.2-11-1.8-5-8.5-4.2-9.5.7ZM427.7,528.5c-1.8-.5-.9,1.2-1.4,1.8-1.9,2.4,0,5-.4,7.5,1.2,1.2,2.2,2,3.3,3.6,5,4.1,12.9,3,13.1-4.8-2.2,6.8-12.5,5.5-12.3-1.8.4-2.9-2-1.1-2.5-6.4,4.4,1.3,1.7-3.8,6.1-1.9,2.3.7,2.7,2.4,1.2,4.2-1,1.4-3.8.9-2.8,3.4,1.9-2.1,4.5-2.8,6.6-4.4,4-3.4-7.7-8.2-11-1.3ZM361.1,547.4c-4.2.3-5.1,10.4-1.5,12.5,1.5,1.8,3.3.2,5.2.9,5.2.9,12.4,0,10.4,8-.2.9-1,1.8-.5,2.9,2.9-2.8,3.8-4.6,4-6.6.3-2.7-2.8-3.9-2.7-6.4,0,0-.3-.2-.5-.2-7.1-1.7-21.4.6-14.5-11.2.5-.2,0-.4,0,0ZM267.4,535.4c-2.1.1-1.2-3-3.6-2.5-.4,0-.8-.3-.9-.8-.9-2-4.5-2.2-6.1-1.6-3.7,1.7-5.3,5-5.4,9,0,5.1,11.2,8.2,8.8,13.5,1.6,2.3-.2,3.2-1.8,4.1-1.2.6-2.4,1.8-4,1-1.4-1.1-1.6,1.4-.4,1.4,1.4-.3,2.8.5,4.2.2.3,0,.9.5,1-.1.2-1.4,1.7-1.4,2.5-2.2,3.6-3,3-8.3.3-11.6-17.3-10.2,2.2-21.7,4.4-4.6,1.9-1.8,1.7-3.8,1.1-5.9.1,0,.3,0,.3-.3,0,0-.2.2-.3.3ZM203.9,497c-1.9-1.2-3.4,0-5.1.6,0-.2-.2-.4-.3-.7-.2.3.1.4.3.6-2.8,2.9-7.2,4.6-10.3,6.9-1.7,2.5-5.1,3.6-7.5,5.4-1,.6-2.7.2-3.3,1.5-.6,1.7,1.8,2.3,1.9,4,.7,1.7,3.8.3,2.1-1.2-1-1.1,0-2.9.7-3.2,2.1-.7,3.1-2.9,5.1-3.6.6,1,1.2,2.7,1.5,2.7,2-.4,2.7,1.6,4.2,2,1.8.4,2.3,2.5,1.4,4.1-1.5,1.4-1.5,6.2-4.4,4.1-.6-.5-1.1-.3-1.4,0,1.7,3,4.1,5,7.2,6.3,1.2-1.9-2-3.2-.7-4.3,2.1-.4,1.8-2.1,2.2-3.5,1.6-7.5,5-14.3,6.2-21.9,0,0,0-.1.1-.2,0,0,0,.1-.1.2ZM297.9,569.7c-17.1,4.8-16.4-24.4-1.7-24.6,1.4.4,1.7-1.2.2-1.2-12.1-2.5-18.8,13.9-14.2,23.2,3.8,4.1,11.2,7.5,15.7,2.6ZM450.7,501.4c-.5,2.5-.9,4.4-2.9,5.5-1.3.6.3,2.4,1.1,1.4.8-.9,1.4-.5,2.3-.2,3.7,1.1,3.2,5.6,5.3,7.9,1.8,1.5,2.6,3.7,4.4,5.2,1.2,1.3.5,3.4.9,5,2.4-.7,3.6-1.5,5.3-3.6-7.9-5.3-10-14-16.5-21.1ZM384.6,571.1c-.2-3.9,6.9-2.9,3.5-6.9-3.5-4.4-3-10.5-6.1-15.5-1,1-2.4.5-3,.9-3.8,2.9,2.7,5.3,3.1,8.4,1,4.3,2,8.7,2.6,13ZM196,530.9c-1.2.3-.9,1.6-1.6,2.2-.4.3-.2.7,0,1.1,2.9,3.5,7.9,1.1,9.4-2.4,2-4,5.7-6.8,6.9-11.1.6-1.6,2.8-1.9,3-4-1.5-.2-3-.4-4.6-1.4,0,2.9-1,5.1-1.9,7.4-.5,1.3-1.7.3-2.1,1.4-.8,2.1-5.1,10.6-7.2,10-1.5-.4-.6-2.5-1.9-3.3ZM480.2,478.5c4.8.5,10.7,3.3,9.9,9,0,.3.5,1.7.9,1.2,1.5-2.6,4,1.2,4.1,2.8,0,1,0,2.8,1.3,2.7.8,0,2.5-1.4,1-1.9-.7-.2-.5-.8-.5-1.3,0-1.3-.7-2.3-1-3.5-.4-1.3-2.5-2-1.3-3.8-3.4-3.6-9.3-10-14.4-5.4ZM411.7,537.7c-2.9.1-3,10.4-1,11.4,2.8,1.6,3.9,4.2,7.8,3.8,2,.2,5.9-1,5.2-3.7-.5-.5-1,0-1.4.2-6.5,3.9-11.4-6.1-10.6-11.6ZM511,484.9c3.7-1.7,2.2-5.1,2.2-7.8-.3-6.1-10.4-9.8-13.6-4.1,1.7.5,3.4-.3,5.1-.2,4.7.4,8.6,6.7,6.3,12ZM462,496.2c-.7,3.1,1.5,5.4,1.8,8.1,0,.5.5.6.8.8,2.3,1.7,6.4,2.6,8.3,0-.1-.7-.8-.7-1.3-.6-5.2.9-5.7-6.3-9.7-8.4ZM216,538.9c-2.5-3.6-1.4-6.5,2.1-6.8.2-.2.5-.4.5-.7,0-.2-.3-.8-.3-.7-1.4.3-2.8-.9-4.3,0-3.9,1.7-2.8,10.3,2,8.2ZM371.7,572.5c0-.3,0-.7-.3-.7-3.1-.2-6-.6-8.7-2.3-3.5.8,1.3,3.6,2.2,4.9.6.7,1.3-.7,2.2-.7,1.8.5,3.8,1.2,4.7-1.2ZM303.4,553.2c1.4-3,2.3-5.7-1.5-6.9-1.1-.4-2.4-2.3-3.4-.8-.3.6.1,1,.6,1.3,2.8,1.4,2.4,4,4.3,6.4ZM480.4,512.8c-1.9,1.4-3.3,0-5.1-.7-1.5-1-3.3.9-2.5,2.4,1.6,2.9,6.1.6,7.6-1.7ZM501.7,484.3c.7,2.2,1.6,4.1,4.5,3.5,2,.6,2.7,1.1,2.8-1.8-3.9,1.8-3.2-4.2-7.2-1.7ZM414.7,534.9c2.3.3,3.8,3.6,5.6,2.6,4-4.1-3-4.7-5.6-2.6ZM491.4,502.4c1.4.1,5.7-2,4.2-3.1-1.7,1.7-3.1,0-4.7-.4-1.6-.9-2.6,2.1-1.3,2.9.6.3,1.3.5,1.7.6ZM379.9,543.1c.7-3.3-4.6-1.4-4.7-.3-.3,3.2,4.5,4.1,4.7.3ZM368.6,545c-2.2,0-2.1,2.3-1.1,3.6,1.7-1,1.8,1.1,3,1.4,3.2.4,0-5.3-1.8-5.1ZM218.1,526.1c2.3-.2,4.1-1.8,6.4-1.9-1.5-3.2-4.1-1.1-6-1.3-1.1-.1-1.2,1.9-.4,3.2ZM218.2,509.8c0-3.4-3.8-3.3-4.2-.4-.4,2.2,4.8,3.3,4.2.4ZM271.6,561.3c-.9-.4-1.6.6-2.5.2-1-.5-1.4.4-1.8,1.2-.4,4,5.5,2.3,4.2-1.4ZM299.9,565.9c-.3.5-.5,1-.7,1.4-.2.4-.9.6-.4,1.2.6.5,1.6-.3,1.3-1-.1-.5.5-1.1-.1-1.6Z"/>
        <path class="cls-1" d="M89.7,498.2c-1.5-5.5-3.5-13-8.2-16,.3-.1.9-.3.8-.7-1.7-1.7-1.1-4.9-3.8-5.9-.7-.2-.6-.7-.5-1.2.2-1.5-1.2-2.7-.7-4.2.1-.5-.4-.7-.9-.6-2,.4-2.8-1-3.3-2.4-2.3-5-7.8-7.7-10.6-12.4-3-6.2-23.1-11.5-13.4-18.8,4.7-4.2,6-11.3,11.5-15,.4-.8.1-1.8,1.5-2.2.8-.2.3-2,1.3-2.6,1.7-.7,1.3-2.7,2.6-3.7,1.2-2,4.2-3,3.8-6.1,1.8-1.5,3.8-5.5,6.4-4.5,9.6,3.3,18.1,8.9,25.6,16,3.1,3.7,8,6,10.7,10.1,1.6,2,2.7,4.5,5.5,5.3.7.2.6,1,.5,1.6,0,.6,0,1.3-1.1,1.1-.5-.1-.9,0-1,.5-.7,3.1-3.7,4.1-5.5,6.2-1.6,4.1-2.7,1.3-5.1,5.1-1.6,2-3.8,3.8-5.1,5.8-.6,1.4-.9.8-1.4.1,0,0-.4.2-.5.3-.3,2.2-2,3.4-3.4,4.7-2,1.8-2.8,4.7-5.3,6-1.8,4.7-2.8,9.7-3.6,14.7-.2,1-.3,2.1.8,2.9,1.7,2.9,3.4,5.8,7.1,6.1,1.3.2,2.2.6,2.7,1.8,4.2,3.4,6.4,8.6,10.2,12.5,1,6.3,7.6,11.7,5.3,18.8-1.7,5.6-9.2-1.1-11.8-3.4-4.5-5.3-7.7-10.9-10.6-16.9-.6-.7-.6-1.5-.2-2.9Z"/>
        <path class="cls-1" d="M561.1,411.1c-1-4.2,4.6-3.3,5-6.8,0-.6.6-.7,1-1,3.6-3,7.6-4.7,11.1-8.3,1.8-1.3,4.3-1.4,5.6-3.1,3.3-2.4,12.5-7.4,15.4-3,4.3,5.7,8.7,11.1,12,17.4.5.9.9,1.8,2.1,2.1,2.9,4,5.2,9.1,8.8,12.9,1.2,1.4,1,2.6-.7,3.1-3.3,1-5.4,3.8-8.6,4.9-6,7.2-13.3,13.8-16.9,22.6-3.2,1.4-2.4,7.7-5.1,7.6.5,1.7-1.2,2.4-1.6,3.6-1.1,3.4-2.3,6.6-4.7,9.3-.5,3.4-3,6-3.6,9.4-3.4,2.7-2.8,7.9-6.1,10.8-1.5.7-1.2,1.8-1.1,3.2-3.9,3.7-4.3,9.8-8.5,13.1-.9.6-.5,2.6-2.4,2.2-1.6,1.9-4.4,4.7-7.3,3.2-5.9-3.1-1.9-12.4.6-16.9,1.9-1.8,2.8-6.3,5.4-6.7.9,0,.6-.5,2.9-3.7,2.7-3.7,7.5-5.7,11-8.7,8.5-5.7,13.3-18.2,6.5-27-.3-1-2-.3-1.4-1.4.8-1.5-1-1.2-1.3-2-3.2-3.8-8-6.5-12.2-9.1-6.1-4.9-11.7-10.4-17.3-16-2.1-1.3,3.8-7.6,5.3-8.4,1.7-1,3.3-4.9,5.7-3.6Z"/>
        <path class="cls-1" d="M628.9,442.6c.5,2.1-.9,4.9-.3,7.7-1.6,1.8-.8,4.3-1.9,6.4-1,1.7-1.7,3.9-1.6,6.1,0,2.3-1.9,2.9-3.9,1.9-2-2-13.4-11-9.8-13.4,2.9-3.9,5.9-7.8,9.7-11,1.1-2.6,3.5-3,5.7-3.8,3.5-1.2,1.9,3.6,2.2,6.1Z"/>
        <path class="cls-1" d="M541,497.7c-.3,0-.6,0-.7-.2-.7-2.1-5.8-3-3.5-5.6,3.2-2.5,3.1-7.3,5.9-9.7,4.1-2.4,5.4-7.7,9.4-9.6,7.9-9.9,33.6-16.1,10-.2-1.3.5-1.1,2.6-3.3,2.5-1,0-1.5,2.3-3,2.8-1.9,2.7-4,5.3-6.6,7.4-2.1,4.2-5.2,7.4-7,11.8-.2.6-.7.7-1.1.8Z"/>
        <path class="cls-1" d="M39.9,455c2.6.6,4.3,2.3,6.4,3,4,1.7,5.4,6.6,9.6,8.4,3.2,2.5-7.2,8.7-8.3,11.8-3.7,3.6-4.7-8.1-6.5-10.2-1.3-4.3-.4-8.5-1.2-13Z"/>
        <path class="cls-1" d="M129.1,505.2c-1.5,1.7-2.9,3.5-5.1,4.2-1.1-.4-.1-2.4-1.8-2.2-.4,0-.5-.3-.5-.7-.9-7.8-6.8-13.7-10.3-20.4-1.1-2.6-5.7-4.3-5.4-7,5.6.3,24.8,19.5,23,26.1h0Z"/>
        <path class="cls-3" d="M28.4,468.8c.2-.1.3-.3.1-.5,0,.2,0,.4-.1.5Z"/>
        <path class="cls-1" d="M129,505.2c0,0,.2.2.3.2-.2,0-.2-.1-.3-.3,0,0,0,0,0,0Z"/>
        <path class="cls-4" d="M329.7,448.7c3.9,1,8.7-1.6,11.4,2.4.5.8,1.7,1.1,2.6,1.5,2,.9,4.1,1.4,6.1,2.5,3.5,1.4,7.4-.5,10.9,1.6,3.3,1.5,6.4,2,8.6-.6-4.7-2.8-12.1-3.7-18-4.7-3.3-.9-3.7-3.8.4-3.3,4.1.8,2.8-6,6.7-4.3,1.3.4,2,0,2.5-1.2,2.4-3.7,8.2,1,11.2-2.4,2.8-1.9,3.6-2.2,1.3-5.3-2.3-4.3,4.9-8.7,9-7.7,1.9,2.2,4,4.2,4,7.6,1.2-1,3.8-1.3,2.9-2.9-1.9-2.1-3.5-4.6-6.8-4.8-7.7-7.2,4.9-9.6,8.6-14.1,1.4,1.5-.5,4.3,1.6,5,3.1-1.9-1.3-9.5.5-13.1,7.1,5.8,6.6-4.5,9.4-8.7,2.4-5.7-1.4-13.3,2.6-18.4,4.2,7.2-1,16.5.7,24.1,2.5-.5,1.4-3.6,3.6-4.6,1.9-.9,1.2-3.9,2.4-5.8,1.1-1.7,2.4-3.4,2.7-5.9,1.6,1.8.9,3.4.3,4.6-2,3.2-.4,7.9-3.6,10.2-1.6.8-1.4,3.1-2,4.4-3.1,5.1-6.1,10-9.9,14.9-1,2.5-6.8,3.3-5.8,5.4.5,1,1.4.9,2,0,.7-1.2,2.3-1,3.3-1.5.9-3.3,4.9-3,6.5-5.5.5-.8,1.8-.2,2.7-.4,3.9-.9,1.5-6.4,9.1-6.4-1.7,3.7-.6,3.4,2.5,4.8-.3.3.3,0,.2.1-2.8,1.7-.5,3.2.3,4.6,4.7,3.3,5.6-4,5.9-7.3-3-5.6-5.8-11.3-7-17.7-1.3-3,2-5.8,1.8-9-.5-3.7,3.6-5.8,2.9-9.6,0-4.7-6.2-9.9-1.5-13.8,1.2-.9.8-2.8,1.9-3.9,1.8,4.5-.1,9.2,1.5,13.7,1.9,6.4-4.3,12.1-2.2,18.8.8,2.1-.9,4.5,1.2,6.1.5.5,1,1.3,1,1.9-.3,2.3,1.8,4,1.2,6.2-.1.4.2.9.6,1,1.7.4,1.7,2.2,2.7,3.1,1.1,1.2,1.4,2,1,3.5-.4,1.3.3,1.9,1.8,1.8,3.3.2,3.3-3.4,4-5.8,2.3-5.9-7.7-1.7-6.6-9.6,0-.6,0-1.3.5-1.8,2-1.9,2.9-4.8,5.4-6.3.7-.4,1.5-.8,1.8-1.7.7-2,2.5-2.9,4-4.1,2.1-2.1,8.3-3.8,5.6-7.7-9.1-6.7-6.9-7.1-5.4-17.8,0-2.6,1.6-6.8-1.6-7.9-3.1-4.1-6.8-7.9-6.3-13.7,8.7,11,9.8,12.8,9,26.8,0,5.8,6.2,7.2,8.6,11.5.4,1,1.6.7,2.3-.6,3.7-8.4-6-10.5-5.7-16.4.2-1.6,1-3.3-.6-4.7-.1-.1-.2-.5-.1-.6,1.8-1.3.9-3.9,2.9-5.5-1.8,17.5,4.6,11,6.5,22.3-.4,21.7-14.7,16.4-17,27.5-1.3,7,11.5.1,5.8,9.7-3.1,3-7.3,13.3-3,15.9,1.2.3,4.4.2,3.7,2.2-.8,1.4-.1,2.2.7,3,2.1,2.9,2,8.5-3,6.8-6-2.6-6.4,7.6-11.9,1.5-3.7-3.8-7.9-7.1-8-12.8.2-3.6-6.5-2-4.6.8,1,.9,1,2.1.9,3.2-1.1,3.8,7.2,6.6-1.2,6.4-.5.8,0,1.2.3,1.5,1.6,1.6-1.4,2.4-2.2,3.6-2.4,3.9,7.4,4.3,9.8,5.4,1.8.4,2.8-1,3.9-2.7.5,5.2-6.1,8.6-10.6,6.9-1-.4-2-.4-3.1,0,13.4,9.5,16.3-9.3,26.9-10.9,2.4.2,5.4.3,6.4-2.5.2-.5.5-.8,1-1.1,4.6-1.5-4.1-6-2-10.5.3,0,.5,0,.7.2.6.6,0,1.8,1.1,2,1.4.3,1.1-1.2,1.7-1.8.8-.9,1.6-1.8,3-2.1,6,0,2.2-7.6,7.3-7.8,1.1,0,1.7-.7,1.2-1.9-.3-1.2-.7-4.1,1-4.4,1.8,0,2.3-1.9,3.8-2.4.2,0,.4-.3.4-.5.2-2.6,2.9-4.4,2.5-7.2-.2-1.4,1.4-2.1,1.3-3.7-5.2,1.3-3.5,7.7-8,10.2-3.2,1.5-3.9,5.2-6,7.8-1.9,1.5.4,3.4-1.2,4.8-2.6,1.6-5.6,5.6-8.8,4.9-4-1.4-6.3.2-5.3-5.7,1.5-3.8,4.8-7.1,5-11.2.2-2.1,1-3.2,2.8-3.7-4-5-3-1.5-6.6-1.7-2.7.8-3.4-3.2-1.1-4.3.4-.2.9-.3,1.1-.5,1.7-3.5,5.7-4.2,8.1-6.9.2-.2.7,0,.8-.4.8-3.4,4.4-5.2,5-8.7.3-1.7,2.2-2.8,2.3-4.7,0-.5.7-.7,1.2-.8,2-.4.6-3.6,3.1-3.6,2.1-.9,1.7-4.4-.9-2.7-2.9,1-2.8,4.5-5.6,5.5-.7-14.2-6.7-10.4-6.9-17.3,1.3-4.6-.7-10.7,2.1-14.6,3.1-.2,2.7-3.2,4.4-4.8,2.5,3.8,4.6,8.5,10.1,8.5,4.2,1.3,8.6,1.6,12.2-1.6,2.5-2.8,8.1-3.2,8.6-7.5,0-1.3.6-2.5,1.8-3.2,1.3-1.3,3.4-2.7,3.5-4.6-.2-3.6.2-9.5,4.4-10.4,2.1-.4,4.5.2,6.1-1.9,1.1,1.9,1.2,3.8.1,5.7-.8,1.3.3,3.3-1.7,4.1-1.2,3.7-4.7,4.4-7.6,5.5-3.6.8-1.4,4.7-3.3,6.7-2.9,4-.2,8.9-2.5,13.3-.2,1-1.2.7-1.9.7-3.8,0-3.9,0-4.2,4-.2,5.7-6,6-9.3,9.1-4.2,5.4-11.7,9-13.5,15.8.1,3.8.2,7.6-.1,11.4.4,5.7,9.4-5,10.6-6.6,1.8-3.4,7-7.1,8.9-1.7,1.8,8.1,1,16-3.6,23.1-3.2,3.3-6.4,4.9-1.2,8.8,4.8,3.3-.8,5.8-1.7,9.4-1.5,5.4,2.1,8.5,6.5,10.7-1,1.9-3,1.9-4.7,2.1-16.9,3.3-.7-12.9-10.2-12.8-1.2,0-1.2-.5-1.2-1.3-.9-3.6-3.6,1-5.1,1.7.6,1.6-1.2,2.2-1.3,3.7,0,1.4-1.5,1.8-2.8,1-1.1-.4-1.8-2.3-2.9-1.9-.4.3-.4.9-.1,1.1,1.2.8,1.6,2.2,2.5,3.2,3.6,3.4,3.8-1.4,5.9-1.5,2.3,1.9.6,6.2-1,8.1-2.6,3.4-.8,8.6-5.2,10.8-1.6,1.2-2.5,2.3-2.5,4.3.4,3.6-2.9,1.8-5,1.7-.9.5-.5,1.2-.5,1.8.3,3.7-3.6,1.1-3.4,4,.7,5.1-6.9.3-8.8,5-1.5,1.4-5,.8-6.9.2-.6-.3-1.3-.4-1.8,0-1.9,1.4-4.5.7-6.4,2.3-1,.8-2.7.3-3.9-.3-3.7-1.4-7.9-.1-10.5-4.1-1.6-1.8-2.4-4.7-5.5-4.9-.4,0-.8-.4-.8-.9-1.8-8.6,3.9-8.2,2-11.6-1.3-3,3.8-1.9,5.5-2.1,0-1.2-1.2-1.6-1.4-2.8,1.4-.8,3.8.5,4.5-1.3.1-1.8-3.1-.9-2.5-3,1.2-2.3,4.4-.2,6.3-1.4-.2-2.2-2.2-2-3.3-2.7.2-1.3,1.1-1.7,1.9-2.1,1.9-.8,1-3.1-.9-2.9-7.9,1.4-1.9-4.5-1.8-8.5-.3-1.8,2.7-1.8,2.1-3.4-.3-.5-.8-.9-1.3-.5-2.5,1.1-3.4,3.8-4.3,6.2-.5,5.5-8.4,3.6-7.7,7.6,2.1,1.8,5.7-1,8.1,1.1-3,3-4.9,6.5-5.7,10.8-.8.1-1.8.2-2.7.4-.7.7,0,1.2,0,1.8.5,1.3-.9,2.5-1.9,1.4-1.1-1.1-2.2-1-3.4,0-5.9,0-9.5,5-14.9,6.2-2.7.8-2.7,4.9-5.6,6.1-3.1,3.2,10.6,2.8,10.2,11.1,2.3,19.1-24.8,12.9-34.6,7,9-1.1,20.4,6.1,29.2.5,6.1-5.7-5.5-16.8-11.7-13.3-1.8-1.2-3.8,1.2-5.7-.5-.8-.7-1.6.3-2.3.9-.3-3.7-7.6,1.3-5.7-3,1.6-2.1-4.4-5.6-6.3-6-1-.1-1.9-.9-2.7-1.5-3.7-2.5-10.2-4-13.7-1-2-2.7-10.4-1.9-12.8,1-2.8,2-6.5,2.6-8.6,5.7-.4.5-2.1,1.4-.4,2.6.8,1.2-1.8,2.7-2.6,1.5-.8-.9-1.4-.7-2.1-.2-.1,0-.2-.2-.4-.3,0,.1.2.3.2.4-1,4.4-2.3-2.5-5.2,1.1-.6.5-.9,0-1.2,0-5.3-1-9.9.4-14,3.9-1.1.7-1.7,2.1-1.7,3.6.5,2.4-1.4,4.4,1.1,5.7,6.5,5.1,15.5.8,22.7.3,2.5.7,4.7-2.1,6.7-1.3.4,2-3.4,1.9-4.7,2.7-8.4,2.1-20.2,8-27.5,1-1.1-2.4-4.6-8.1-3.1-10.8,1.7-1.8,2.4-4.9,4.6-5.7,1.9-.8,10.6-2.5,5.3-4.9-3.8-.6-1.6-5.4-5.6-5.7-.8-.1-1.7,0-2.4-.6-2.4-2.4-5.7-3-8.6-4.5-1.4-.8-3.2,0-4.5-1.4-.5-.5-2,1.1-3.3,1.2-.8-.9.2-2.2-.6-3-.8-.8-2-.1-3-.7.6-1.5.6-2.5-1-3.8-1.8-1.5-2.6-4.2-4.3-6-1.2-1.5,5.2-1.7,6-1.6,3.3.4,2-3.6-.6-3.5-6.2-.2-5-9-9.6-10.5-.1,3.3,3.1,5.1,2.5,8.4-.4,1.4,1.8,1.6,2,3-1.9,1.9-6.6,0-7.4,2-.2,2.5,2.8,1.8,4.1,3.3-1.2,1.4-4.2.7-4.5,2.4.6,3.2,5.5.4,7.1,2.1.5,1.6-1.4,1.7-2.4,2.3-1.4,1.1.3,2.4,1.6,1.5,4.3-.2-3.3,6,7.2,2.5-2.8,6.3,4.1,7,2.4,13.5,0,1-.8,1.9-1.7,2-5.6,1.3-5.9,10.1-12.9,8.3-3-.4-5.7,2.6-8.7,1.1-1.4-.5-2.7-1.2-4.2-1.1-1.4,0-1.4-2.1-3-2-.1,0-.3-.1-.4-.2,1.8,3.8-7.6,2-8.7-.2-.8-1-2.1-.8-3.2-.8-4.8.9-1-4.4-4.7-3.6-4.3.7-.7-5.6-5.1-4.1-1.1.2-1.4-.3-1.6-1-.5-5.5-7.2-6.8-7.6-12.1.2-4.4-5.2-9.1-1.1-12.8,2.1.6,1.4,4.8,4.2,2.6.3-.2.5-.6.7-.6,2.6.5,2.2-2,3.1-3.1.8-.9-.6-1.3-1-1.9-.9.8-1.4,2.6-2.9,2.2-1.6-.5-3.3-1.5-3.7-3.3-.5-2.2-2.3-3.1-4.2-3.4-1.2,1.5,1.9,2.2.4,3.5-1.6,1.6-3.5-3.7-4.2-.6-.3,2.1-1.5,4.1-.5,6.5,1,2-.4,5.2-2.7,5.8-2.6-1-8.6,1.6-9.1-2.4h0c5.1-1.8,9.5-9.2,4.4-13-7.6-6.6,8.4-9.5.3-14-2.9-1.1-6.7-11.3-6.7-14.3,2-4.4-1.2-13,4.9-14.3,7.9,3.6,7.2,11,15.1,12.7.9-3.5.1-6.9.3-10.5.4-2.4.2-4.5-2-6.1-.6-.5-1.2-1.3-.9-2.2.7-2.1-1-.7-1.5-1.1-1.4-2.3-4.5-2.7-5.5-5.3-1.9,0-3.3-1.6-5.2-1.7,0-.7-.8-.1,0,0,.9,1.3,1.5,2.8,3,3.6,3.1,2-5.7,4.3-5,9.7-8.6-2.3-.2,8.6-5.1,11.1-4,1.2-5.3-2.1-6.8-4.9-.4-.5-.3-1,.3-1.3,2.4-1.8-.5-3.3,3.8-4,1-.7-.2-2.6,1.4-2.8,1.6-.2,2.6-1.8,4.3-1.5,1.4.4,4.9-5.8,3.4-6.4-1.3-.3-1.4-1.3-1.9-2.2-.9-1.7-1-1.9.7-2.5.4-.1.8-.2.9-.8-9.9-4.1-3-12.4-8.5-12.2-1.6-.1-2.6-1.2-3.2-2.3-3.3-.9-2.6-3.2-2.1-5.5.8-3.4-2.8-6-2.3-9.5-.3-5.1-9.2-2.2-10.9-10.3-.6-2.7-1.9-5.3-.4-8.2,2.3,3.3,9.9-.1,9.7,4.9,1.2,3.7,0,8.9,3.9,11,5,2.2.3,7,7,8.8,2.1.4,2.5,2.8,4.6,3.2.5.1,1.2.2,1.4.5,2.4,2.9,5.8,1.1,8.7.5,3.9-.2,6.8-2,9.4-4.9,2.3-1.8.5-3.5,1.8-4.1,2,0,1.3,5.8,4.2,5,1.5-.2,1.3.9,1.3,1.9-1.8.2-.2,1.8,0,0,1.1.7,2.1,16,0,16.1-2.3,2.3-5.5,4.7-5.2,8.4.2,1.9-1.3,3.4-1.1,5.5-2.4-1.1-3.8-5-6-4.5-.7.7-.3,1.5.3,2.2,4.5,4.5,7.6,9.9,10.2,15.7,3,1.3,4.5,4.6,7.3,5.8,2.1.9,2.6,3.2,4.6,4,1.2.5.4,4-1.1,2.4-.4-.2-.6.4-.8.7-.8.8-1.8.8-2.6.2-.8-.6-1.4-1.1-2.5-.4-1.3.9.3,1.3.2,2-1.5,5.4,11,18.6,3.7,20.6q-2.8.4-3.3,3.6c-1-1-1.9-1.9-2.8-2.8-.6-.6-.5-2.1-2.4-1.1-1.9,1-3-5.2-4.5-2.8-1.3,1.8.7,4.4,2.8,4.3,2.2-.2,3.2,1.2,4,2.9.6,2.7,3.1-1.2,3.1,2.1,0,.8-1.4,1.1-.9,2.2.3.9,1.8-.2,1.8,1.1-1.4-.2-4.1-.2-4,1.8.1.9-.5,2.6,1.5,2.4.7,0,.9.6,1,1,1.5,4.5,7.1.9,10,3.1,4.8,2.9,9.8,14,15.7,12,2.5-.8,5.5.7,7-2.4-1-.6-1.7-.8-2.9-.3-2.6,1.1-5.3,1.8-7.6-.9-2.3-1.3-3.5-3.1-4.2-5.5,1.4-.3,1.5.8,2.1,1.3.8.7,1.6,1.3,2.6,1.7,1.1.4,1.4-.7,2.1-1.1,4.1-.4,2.9,1.4,6.5-2.2,4.1-1.4-1-2.8-.8-5.2.2-2.3-.1-2.7-2-2.9-4.9,0,3-3.2.9-6.2.7-2.5,1-4.7-.9-6.9-1.6,1.1-2.8,2.5-2.8,4.3-1,5.4-5.8,9.5-9.4,13.5-4.2,3.5-4.3-4.4-8.6-3.2-1.1.2-2.3-.5-3.5.5-.8.7-1.9-.6-2.5-1.7-.6-1.1.1-2-.1-3,1.8-1.9,1.6-4.3,1.8-6.7,8.5,1.9,5.5-10,2.8-14.2-1.1-1.7-1.4-4-3.2-5.3-1.1-1.3-1.4-3.5,1-3.3,1.6-.1,3.4.5,4.5-1.4,1.1-1.8,3.2-3.5.4-5.6-.4-2.7-2.5-3.7-4.7-4.5-7.6-3.6-12.8-13.6-10.5-21.7,1.9-8.9,8.6-6.6,5-17.2-.2-.9.4-1.3,1.1-1.7,3.3-.3,1.9,6.1,2.1,8,1.3,1.8,0,3.2-1.1,4-1.6,1.2-2.2,3.1-3.8,4.1-1.4,2.1-.6,5.3-1.4,7.8-.5,1.5,1.8,4.1,2.8,2.3.6-1.7,2-2.5,3.4-3.4,1.9-1.2,2.9-3.5,4.9-4.7-.3-1.6,1.9-2.9.4-4.8-.9-1.1,0-2.6,1.1-3.8-.2,3.5,3.5,6.6.1,9.8-1.2,1.1.9,4.9-2,3.5-3-.8,1.7,2.9-2.1,1.9-1.1,2.3-3.8,6.1,0,7.3,6.5,3.4,26.6,20.2,9.8,22.7-1.2.4-1.7,1.5-1,2.5,2.1,1.3,2.3,10,5,7.6,3.7-2.9-.7-4.6,1.6-5.5,1.2-.4.5-2,1.1-2.7,3.5-2,2.8-3.2,3.7-6.5.9-1.8.8-4,2.4-5.5.2-.2.2-.6.2-.9-.1-4-.2-8-.3-12,0-1.5-2-2.3-1.4-4-1.8-2.5-.6-5-.2-7.5,1.2-5-.2-10,.9-15.1,8.1,16.6-.3,9.5.7,21.4,6.8,11.5,6.1,20.6-.8,31.8-3.1,1.2-.3,7.8.8,9.9,2.4,3.2,6.5,0,4.8-3.3-.4-2.8,5.3.3,1.8-6.8,3.4,0,6.5,2.1,7.3,4.8.2.7-.2,1.9,1,2,1.7.3,2.5-.3,3.4-1.9-.2,2,.3,3.1,2.4,3.8,3.5,1.4,5.9,6.4,10.3,5.5,0-1-.4-1.9-1.3-2-1.7-.2-2.6-2-4.5-1.9-.9,0-.4-1.1-.8-1.4-5.7-4.8-7.5-12.2-11.3-18.6-2.9-5.4-7-15.2-5.1-21,2.1,1.8,1.6,6,3.1,8.5.4,1,.5,2,1.5,2.6.5.3.3,1.1.6,1.3,1.5,1.2-1.2,3.2,1.1,4.4,1.4.7,2,2.5,3.1,3.8.4-7.7-2-15.7.7-23.2,3.6,5.7.3,12.7,3.7,18.4.9,1.5,1,3.2,1.2,4.8.3,2.6,2.1,3.9,3.6,5.7,1.9,1.1,2.3-1.9,4.1-2.4.3,3.3-2.2,23.1,2.3,9.4,1.6.3,2.2,1.7,3.2,2.4,4,1.9,11,6.3,5.2,10.6-2.8,0-4.5,2.1-6.2,3.8-1.7,1.7-1.1,2.1.8,3.8,1.4,1.2,1.8-.4,1.7-.5-1.4-3.6,3.6-4,3.6-7.1,3.5-.4,5.9,1.8,8.5,3.5,2.9,3.2-4.1,9.2,5,11,12.3-1.6,3.4.6,11.5,1.6,3.9,1.2,1.2,5.2,7.4,4.8,5.5,2.8-9.9,4-11.4,5.5-1.3.6-2.7-.8-3.8.8-.9,1.3-2.5.6-3.8.3-1.4-.6-3.7,1.4-3.9-1-.2-1.8-1.6-3.2-1.5-5.3,0-1.7-1.9-2.5-4.2-2.1-2.8,1.3-5.3-3-2.2-4.5.3-.2.8-.3.7-1.1-1.9.4-3.9.9-5.4-.8-2.5.9-3.5-.4-3.8-2.7-2-2-6.9-2.5-5.9,2.1.4,1.1,1.1,2,1.2,3.2,0,.8.7.7,1.1.8,1.2.2,2.5.6,3.7.4,5.1-1.5,5.9,5.1,10.2,4.9.9,0,3.2.5,2.9,1.7-1.7,2.3,1.5,3.5,1.1,5.5-.1.7,1.1,1.1,1.7,1,3.7-.8,7.7,1.9,11.3.1,5.1-3.3,9.9,1,16.2-3.8,11.3-5.1,1.4-4.7,16.3-5ZM370.9,455.6c1.5.6,2.9,1.1,3.5,0,.7-1.3,1.9-2.8,1.2-4.3-.6-1.3,0-1.6.6-2.3,1.8-2.2,6,.4,6.2-3.3,0-.6.4-1.1.9-1.1,4.1-2.1,11.3-.6,11.6-6.5.5-1.8-1.6-3.3-3.1-2.3-2.8,1.1-3.5,5-7,4.7-7.9.6-3.4-.2-7.3-2.8-.7,0-.7.7-.8,1.2-1.1,4.2,5.2,1.1,4.6,5,.1,2.2-1.8,2.4-3.6,2.3-5.7-.3-2.7,7.1-6.9,9.5ZM194.5,416c-1.5,3.9,6.3,5.6,4,.5-.9-4.5-5.1-5.8-7.6-8.8-.5-1.9-2-3.4-2-5.5.2-1.4-1.9-1-1.9.1-.6,2.8,1.5,4.4,2.3,6.8.8,3.7,6.4,1.5,5.2,6.9ZM228.4,429.3c1.4-.8,1.1-2.4,2.1-3.2-2.1-1.2-1.2-7.5-4.5-5.3-1,0-.8.9-.5,1.4,1.2,2.2,1.2,5,2.9,7.1ZM433.4,420.6c-.2-1,0-1.9-1.3-2.1-2.9-.1-2.2,4.7-2.5,6.7,0,.6-.2,1.4.7,1.4,2.5-.2,2.1-4.4,3.1-6.1ZM259.7,428.4c-.3-2-3.3-2.3-3.5-4.6,0-.5-.5-.6-1-.4-1.4.2-.3,3,0,3.1,1.9-.2,3.1,4.5,4.5,1.8ZM170.2,387.3c-.4-.2-.7-.2-.8.3.1.6.7,0,.8-.3ZM283,444.5c-.1.1-.3.3-.3.4,0,.7,1.1-.4.3-.4Z"/>
        <path class="cls-4" d="M330,209.5c48,1.9,86.8,38.2,87.6,86.8,2.4,49.2-38.5,92.1-88.1,92.5-4.2-2.1-9.2.9-13.3-1.9-1.1-1-2,.8-3.1,0-4.5-2-9.6-2.7-14.2-4.7-4.3-1.9-9.5-3.9-13-6.6-8.1-4.1-15.8-11-21-18.3.5-.1.1-.4,0,0-27-28.6-27.4-77.9-5.3-109.2,3.2-3,4.2-7.1,8.2-9.5,3.8-3.3,6.3-8.3,11.4-9.7,1.3-1.9,2.8-3.5,5-4.3,6.1-3.2,11.9-7.1,18.4-9.3,8.1-2.7,16.6-5,25.2-4.7.8.2,1.6-.5,2.2-1.1ZM389.5,339.3c5.4,2.6,12.3-21.5,14.1-25.1.9-1.6-1.4-1.9.1-3.7,1.8-2.9.3-6.6,1.5-9.8.1-.5,0-1-.7-1.1-2-.1-3.2-1.5-4.2-2.9-4.3-4.4-8.7-8.5-13.2-12.8-4.3-3.7-12,2-17.3,2-6.9,2.2-13.2,2.3-13.8,11-.3,3.7-1.4,7-3.3,10.2,0,1.7-.4,3.4-1.2,4.8-.7,1.4-.2,3.3-1.7,4.4-1,2.7,3,4.9,3.2,7.7,2,.3,2.1,2.1,2.8,3.5,1.7,3.5,4.2,6.6,6.7,9.6,2.2,1.4,1.1,4.8,4,4.8,7.8,0,15.4-2.1,23.1-2.7ZM278.3,284.2c-4.6.9-8.1,6.7-12.1,9.4-1.8,1.2-2,3.7-4.4,4.2-2.6,1.7-2.2,7.1-1.4,9.9,2,11.3,4.8,24.5,13.3,32.6,5.2,2.1,11.2,2.1,16.5,4,7,2.2,5.7-2.6,9.8-5.5.5-.1.9-.8,1.2-1.4,2.6-7,12.4-13.3,11-20.8-1.9-7-4.2-13.9-6.2-20.9-.3-1.3-.7-3-1.9-3.4-8.8-3-16.5-6.2-25.8-8.1ZM339.4,370.4c14-3.4,8.6.7,15.4-10.7,2-3.5,2.9-7.6,5.5-10.8,1.6-2,1-3.9-.3-5.7-4.3-6.3-9.1-12.3-12.9-18.9-2.7-4.7-9.8-1.8-14.4-2.5-4.5,0-9-.6-13.4.5-1.6-1.8-2.1,0-2.6.9-.8,1.5-.8,3.5-3.1,3.9-.1,0-.3.3-.3.5-.5,3.9-4.9,5.6-5.6,9.4,0,.2-.5.4-.7.5-3.4,1.9-3.7,6.3-6.6,8.7-1.4,1.5-1,4.1.6,5.5,1.5,1.1.9,3.4,2.4,4.6,3.5,3.3,4.9,10.1,9.9,11.4,1.8.3,3.5,1.5,5.4.7.6-.3,1.2.2,1.7.6,5.9,2.9,12.3.8,19.1,1.4ZM332.9,264.8c-1.1,7.9,11.8,10,15.7,15.8,1.9,1.6,4.5,3.5,7.2,3.8,2,.5,3.6-.7,5.4-1.1,2.3-.6,4.8-.3,6.9-1.4,4.2-2.8,12.4-.8,13.4-7,.4-6.7,7.4-25.7.9-29.2-6.6-5.8-13.4-11.5-21.8-14.1-2.5-1.9-4.7-1.4-7.2,0-1.9,1-4.1,1.5-5.8,2.9-.8.6-1.7-.6-2.6.3-3.8,4-11.5,3.6-12.1,10.4.7,3.9-.7,8.2,0,11.9.9,2.7.1,5.2,0,7.8ZM278.2,262.3c.5,5,1.8,9.9,1.8,14.9,0,1.5,1.1,2.6,2.6,2.9,4.3.4,7.7,4,12.2,3.3,2.2,1.2,4.8,1.7,7.2,2.5,1.2.6,3,1.4,4.1,0,5.3-3.8,9.9-8.3,15.5-11.8,9.8-4.6,5.1-11.8,7.2-20-2-3.9,1.6-10.9-3.1-12.9-5.3-1.6-15.4-12.2-20.6-10.2-2.7,2-6.2,2.4-8.9,4.6-2,1.2-3.3,3.5-6,3.5-1,0-1.4,1-1.8,1.5-3.2,3.8-7.2,6.5-10.7,10-3.2,3.3,1.3,8.2.4,11.6ZM336.2,382.9c.5.2,1.1.4,1.5,0,2.1-1.6,4.9.1,7-1.6.1,0,.5,0,.6,0,1.1,1.1,2.1.3,3.1,0,2.4-1.7,9.4-.4,8.7-4.4-.8-2.1-4.4-4.1-6.5-3.7-8.6,2.2-17.5,1.9-26.1,2-2.2-1.9-5-.4-7.4-1.4-1.2-.5-3-.6-4.5-.9-1.2-.2-3-.4-3.4.6-.8,1.8-2.3,2.5-3.6,3.7-6.1,5.1,28.2,6.6,30.7,5.6ZM265.9,350.9c3.5-10,.8-8.6-2.4-16.6-1-2.9-3.1-5-4-8.1.1-3.4-2.3-6-2.9-9.4-1.2-5.7-2.1-11.6-1.9-17.4.3-1.2,0-2.2-1.2-2.6-1.7-.2-4.6-3.6-5-.2-.1,14.6,1.8,29.8,9.6,42.6,3.4,6.4,1.6,6.6,7.8,11.7ZM269.4,250c3.8.4,5-3.1,7.1-5,3.8-4.6,9-8.2,13.8-11.7,4.7-3.7,14-5.3,15.2-11.8,0-1,0-1.7-1.6-1.4-7.2,2.1-13.5,5.8-19.3,10.3-2.9,1.7-5.5,3.8-8.2,5.7-.9.7-.7,2.4-2.5,2.3-1.1,0-1.1,1.9-2.1,2.7-1.9,1.6-4,3.2-4.9,5.7-.3.7-1.4,1-1,2.1.7,1.5,2.2.4,3.4,1.1ZM396.7,349.1c8-9.3,15-25.5,15.2-37.5.6-3.3,3.6-17.1-.6-17.6-2.6,1.8-.4,8.5-2,11.8-.2.8-1.1,1.1-.8,2.2.5,2.3.9,4.7-1,6.7-.7,10.5-6.3,19.9-12.3,28.4-1.7,2.2,0,4.2,1.6,6ZM354.4,219.9c-.9,5.7,14,7.8,17.4,12.1,3.1-.1,4.1,3.3,6.7,3.9,1.4,2.8,5.4,2.8,6.5,5.8,4.5.8,4.4,8.2,9.3,7,1.7,0,2.5-1.1.7-2-5.8-7.6-12.6-14.2-20.8-19.3-3.7-2.7-15.6-9-19.8-7.5Z"/>
        <path class="cls-4" d="M329.3,104.1c0,4.4,1.7,17.2,8.2,14.2,5.6-3.3,11.6-2.8,17.2-1,12.6,4.3,14.9,26.1,2.9,32.3,3.6-12.4,0-21.3-14.3-20.1-11.5,2.3-15.2,18.6-10.6,27.9,4.2,9.2,18.6,6.5,25.4,1.6.9-.7,1.4-.3,2.1.4,3.9,5,13.4,5.7,15.3-1.3,2.1-8.4-6.7-19.2,3.1-25.5,14.2-8.6,14.6,5.7,19.3,3.5,5.4-2.8,9.4-7.5,15.3-9,8.8-4.1,21.8-.8,24.7,9-11.3,0-17.9,2-26.8,9.1-1.5,4.2-5.8,5.9-8.1,9.6-1.8,2.9-4.4,5.4-6.6,8.2-6.5,10.3-14.9,20-21.1,31-.3.7-.9.8-1.5.8-7-.6-14-1.9-21.1-2.5-18.4-1-37.3-1.9-55.5,1.8-1.5-1-2.5.4-3.7.6-2.6.5-5,1.5-7.7,1.4-3.8,1.8-3.6.7-6-2.4-11.3-15.5-20.9-32.1-35.2-44.7-4.8-3.7-10.9-6.2-16.9-7.4-3-.8-6.6.2-9.3-1.5,1.3-2.6,2.6-5.3,5.9-6.4,3.3-3.6,8.5-3.4,13-4.7,1.7-.6,3.1.8,4.7,1.1,2.1.7,4.5.9,6.6,1.8,2.8,2.6,6.4,4.1,9.3,6.6,1.6,1.4,2.4,1.1,3.4-.7,5-10.5,21.2-5.3,22,5.4-.4,3.3-4.4,6.2-3.3,10,.5,2.8-.4,6.1,1.9,8.5,1.3,1.7,2.9,3.2,5.4,2.5,5.9,3.8,8-6.2,12.9-3.1,7.6,4,17.6,2.7,23.1-4.2,1.4-1.1,1.6-3.5,1.3-5.2.6-9.4-5-23.3-16.6-21.3-1.2.8-3.5-1.3-3.6.9h0c-7.9,4.1-6,13.9-3.8,20.8h0c-5.8-2.2-7-7.6-8.4-12.9-1.5-2.5.2-3.5.7-5.8-.6-4.8,2.1-7.7,4.8-11.2,1.7-3.2,5.3-3.5,7.9-5.4,3.3.6,6.5-.6,9.8.1,3.2.3,8.4,4.1,9.8-.6.3-1.6-.9-3.6,1.4-4.7-1.4-2.4,1.7-4,1.1-6.3-.2-.8.4-1.6,1.6-1.5ZM329.2,187.7c1.8,1.1,2.7-.3,4-1.3-1.3-1.4-2-2.7-3.8-3.2-2.7-1.3-3.6,2.1-3.3,4.2.5,1,2.8,1.8,3.1.2ZM265.7,139.1c4.6-.3,10.1.4,11.5,5.7.4.6,0,1.7,1,1.7,1.6,0,0-1.5.9-2,0-3.2-2.2-6.6-5.5-7.6-.9-.3-1.7-1.2-2.6-.6-1.7,1-4.2.5-5.2,2.9ZM350.4,189c1.6.2,3.7-.3,3.5-2.3,0-1.3,0-2.6-1.8-2.8-1-.1-2-.5-3.1-.5-4.5.5-3.4,6.5,1.3,5.6ZM389.5,135.6c-.2-1-.9-1.4-1.8-1.5-6-1.3-11.3,1.8-9.9,9.3,4-.3,1.5-7.6,9-7.4.9,0,1.9.2,2.7-.4ZM310,189.9c0-.9.1-1.4.2-1.9,1.1-2.8-2.4-5.6-4.6-3.8-1.4,1-1.6,2.4-1.3,3.7.7,2.5,3.7,1.1,5.8,2ZM290.7,189.6c.7-4.5-5.8-3.2-5.7.3,0,3.1,6.4,4.1,5.7-.3ZM368.6,185.6c-4.2,0-2.5,6,1.1,5.6,2.7.3,3.2-6.7-1.1-5.6Z"/>
        <path class="cls-4" d="M170.5,257.4c1.6.2,1.6,1.6,1.6,2.6-.2,1.6-4.8,1.1-4,4.6.3,6.8,4.5,2,1.5,8.4-2.3,9,6.3,4.9,5.4,12.5.2,1,1,1.3,1.9,1.4,1.8.3,1.3-4.1,3.3-2.4,3,5,2.8,11.3-.4,16.3-1,1.8,1.3,5.1-.8,6.4-4.6-2.8-2-5.5-10-6.1-1.8-.2-2.3-.6-1.9-2.2.4-1.4-.2-3.1,1.3-4.3.6-.5.4-1.8,0-2.4-1.6-2.1.2-6.5-3-7-.4,0-.5-.6-.6-1-.2-1.1-.6-2.2-1.9-2-1.3.2-2.9-.2-3.8,1.4-.6,1.1-.4,2,.8,2.1,1.3,0,2.1.9,3,1.5,2.3.6,4.4,9,.8,7-.4-.9-1.1-1.9-.7-3,.5-1.5-.4-2.1-1.5-2-2.2.2-3.7-1.2-5.3-2.1-4-2.1-3.1-6.8-4.1-10.2-1.4-.7-1.5,1.1-3,1.2.2-4.2-2.3-8.8,0-12.7,1.8-1.4,1.3-3.2,1-4.9-.3-1.3-.5-2.4.6-3.4.5-.5.8-1.3.8-2,0-3.4,2.3-6,3.2-9,.2-.5.4-1,1-1,3.3.2,1.4-2.8,2.9-4.2,3.2-3.6,7.4-6.5,9.4-10.9.3-1.2,1.3-1.9,2.3-2.5,2.3-1.2,3-3.4,4-5.6,2.9-5.1.8-11.4,4.2-16,1.7-1.6,1.6-1.7,0-3.6-2.7-2.8,1.1-3.2,2.8-4.9-1.8-.8-1.8-2.4-1.3-3.8.3-1-.4-2.5.3-2.9,1.3-.8.7-1.8.9-2.7.9-5-.5-9.9-.7-14.9,0-7.2-1-15.5,3.3-21.7,1.1-1.4,0-3.3,1.8-4.3,1.3-.8,2.2-2.1,3.1-3.5,1.5-2.4,6.5-.7,6.3,2,1.1,7.4-2,14.4-1.3,21.8.8,3.6,3.8,7.3,1.1,10.9-1.3,3.9,6.1,5.7,1.4,9.1.5.5.7,1.2,1.6,1.3.6.1.6,1,0,1.1-2.1.4-1.4,1.9-.7,2.5,1.6,1.5-.9,1.9-.5,3.3.4,1.4-.1,1.6-1.9,2.5-2.5,1.8.8,5.2-2.1,7.5-.6.7-1.6,2.3.4,3,1.7.8-1.6,2.6-.6,4.1.8,2.3-.2,4.5-.5,6.7,1.4,2.9-.7,4.2-1.6,6.4,2.2,3.8-4.3,4.6-3.1,8.5.4,2.5-3.3,2.4-3.9,4.7-1.3,2.6,1.1,5.7-3.7,4.2-3.9.7,4,4.6-1,5.6-1.9.5-4,.2-3.7,2.9.4,3.3-4.1,3.3-4.3,5.8-.2,0-.3,0-.3.3,0,0,.2-.2.3-.3Z"/>
        <path class="cls-4" d="M183.6,260.7c-2.6,5.6-5.2,13.1-.5,18.3,1.7,2.6,6.6,5.9,6.4,8.7-.3,1.7,0,5.8,1.5,6.4,3,1.3,7.9,1.3,7.4-3.3,0-1.8-.8-3-2.1-4.2-4.1-4.5-8.7-13.1-4.1-18.7,2-3.7,2.4-10.1,4.6-13.9,3.8-1.7.6,4,1.1,5.4.4,1.6-.9,2.7-.7,4.2-.1,2.2-1,4.8-2.2,6.6-2.5,1.8,1.3,10,2.9,11.9,4.8,3.9,4.5,9.4,4.5,14.7-1,6.6-6,5.5-11,4.1-5.1-.3-5.1,7.4,0,8.7,2.5.9,6.2.8,5.5,4.4.8,6.5-2.7,5.4-1.1,7.4,4,4.4,2.2,5.5,1,10.8-.7,1.8-2.6,4.3-1.8,6.3,2.8,7.3-10,10.4-14.9,7.1-1.5-1.7-1.9-4.2-4.9-3.8-4.5-.2-1.9-4.7-4.8-5.5-5-2-3.3-7.6-4.4-11.8-.3-1,1.5-1.6,2-.7,1.6,2.6,4.3,4.1,6.1,6.5,1.6,2.2,4.5,1.8,6.9,2.2,4,.4,4.7-1.5,3.5-5.1-.3-3.2,4.7-3.4,2.9-8.8-2.3-6.3-7-13.3-2.9-20.2.9-2,0-4.5,1.5-6.3,1.1-1.2.5-2.6.9-3.7.7-1.9-1-2-1.5-3-1.7-3-4.2-5.4-6.7-7.7-3.5-2.9-2.9-8.3.8-12.4.5-2.2,1.9-3.8,4.2-4.8Z"/>
        <path class="cls-4" d="M147,249c1.6,4.9-2.5,8.9-3.4,13.2.2,2.9-3.8,6.7-.7,9,6,4.3,2.1,12.6,5.3,18,1.3,1.9,2.6,3.8,2.8,6.1.1,1.3,1.6,1.6,1.7,2.8.2.6.6,2.1-.6,1.8-.9-.3-2.3-.7-2.3.4,0,.9-.9,2.1.4,3.1,1.6,1.7,3.5,1.8,5.7,1.8,1.2,0,1.2,2.1,0,2.2-7.9,1.9-6.6-5.3-9.4-3.2-1.1,1.7-2.6.9-3.9.9-3.3.4-5.5-1.4-7.6-3.6-2.6.7-2.6-1-2.9-2.7-1.2-2-2.6-4.7-1.5-7.1.6-1.5.5-2.8.1-4.2-1.2-4.8,5.2-5.3,6-9.3.6-5.4,3.6-2.3,3.3-5-.5-5,.9-10.1,2.2-14.8,1.2-2.7,3.2-4.8,3.3-8.1,0-.7.2-1.5,1.5-1.5ZM139.4,292c-1.1.6-2.4.7-2.1,2.2,1.3,2.2,3.4-.1,2.1-2.2ZM143.5,286.4c1,0,.4-1.4-.3-1.3-1.2,0-.6,1.4.3,1.3Z"/>
        <path class="cls-4" d="M149.2,283.8c2.7,0,2.8,2.9,4.5,4.2,1.8,2.9,7.4,1.4,7.4,5.3,0,3,3.5,4.8,3.7,8,.7,2.3,1.3,3.2,3.4,3.2,3.7,0,6.2,2.1,8.2,4.9,3,3.4,6.5,6,8.2,10.2.3.4,0,.8-.3,1-2.2,2.4-4.9,4.9-2.5,8.1-6.4,3-10-4.6-13.2-8.9-3.3-1.4-5.7-.2-5.7-5.2.7-7.2-6.7-11.6-8.7-17.9-1.5-4.4-4.8-8.1-5-12.9h0Z"/>
        <path class="cls-4" d="M272.1,479.1c-.8-3.9-2.8-3.2-6-4.1-2.7-.9-5.4.6-8.2.2-.9-.1-1.5.7-1.8,1.5.3,3,4.5,4.7,7.4,4.9,7.6.3,6.6,5.2,4.2,10.6-13.1,2.9-3.5-1.1-9.1-7.1-4.3-2.4-15.5-10.7-18-3.2-.6,1.4-.3,3.2-2.1,4.2.4-2.9-7.5-12.3-.6-11,18.9,2.2,16.1-9.6,23.9-5.5,3.3,1.3,4.2-6.6,8.3-2.2.8.8,1.4,1.9,2.7,2,3.4,1.2.7,7.2-.7,9.7Z"/>
        <path class="cls-4" d="M186.1,143.4c-3.6-4,1.9-5.1,1.5-9.8.1-3.5,1.6-1.8,3.7-2.6.4-2.7,4-2.5,4.5-5.3.4-2.2,2.2-4.1,2.3-6.5,2.2-3.9,2.8,5.6,5.9-.3.2-.3.3-.5.9-.5,1.9,8.4-2.2,16.4-4.9,24.1.1,1.5-2.7,3.2-3.5,1.7-1.9-5.5-7.5-5-10.4-.7Z"/>
        <path class="cls-4" d="M221,373.2c.5-1.4-.5-2.4-.2-3.6.3-1.5,0-6.4,2.6-6.1,2.4.6,3.6,4.3,2.2,6.4-.5.6-.4,1.4-.4,2.1-.3,1.6,1.4,2.2,2,.6,3.5-3.4,3.9,10.1,1.6,11.8-4.4,6,3.4,6.1,2.4,13.3,0,1.1-1.8.6-2-.3-1.7-4.2-5.7-6.7-8.2-10.1-1.7.4-2.5-1.2-3.7-1.7-.3-.1-1,.7-1.8,0-7.3-4.8,6.5-6.6,5.5-12.4Z"/>
        <path class="cls-4" d="M144.8,313.4q2.1.2,2.4-3c1.2.9,1.4,2.3,1.9,3.4,1.2,0,1.4-3.1,1.9-2,.4,1.6,2,.6,2.8,1.3.7.7.8,2.2,2.3,2.1,0,.2,0,.3.3.3,0,0-.2-.2-.3-.3.4-2.9,3.6-1.1,4.6.4.4.9.4,2.1,1.3,2.7-.1.7-.7.6-1,.8-.9.7-1.5,1.2-2.9.4-2.9-1.4-9.4-1.8-8.2,3.4.2.8.5,1.5.2,2.4-.9,3.1-2.7.6-4.5,0-.7,0-1.6-1.1-2.1.1-.5,1.1.2,2.9,1.3,3,6.3-.3,7.7,6.1,12.4,8.2,2.5.2-.6,3.4-1.8,1.9-1.2-1.4-3.8.3-4.5-2.2-1.4-2.3-2.3-5.2-5.8-3.4-1.6,0-5.2,0-4.7-2.9.5-1.9-.7-3.6-.6-5.4.6-3.9-1.9-7.4-1.6-11.1,3,2.2,2.9,5.9,3.6,9.2,0,.6.5,1.2,1.3,1.1,1.7-.4.7-2.4.8-3.6,0-.9.2-2,1.6-1.6,1.5.5,2.3-1.7.9-2.3-1.3-.7-1.5-1.9-1.5-3.2h0Z"/>
        <path class="cls-4" d="M167.4,361.8c.3-1.7-1.4-2.7-1.2-4.4,1.6-4.4,4.9,6.1,5.7,7.4.5,3.5-1.9,5.2,2.5,7,3,2-.3,6.5-3.2,5-1.4-.2-2.3-1.8-3.5-.4-2.2,2.4-7.9.4-4.6-2.8,3-2.4,1-6.7,3-9.2,1.1-.7-.1-2.4,1.5-2.7,0,.2,0,.3.3.3,0,0-.2-.2-.3-.3Z"/>
        <path class="cls-4" d="M195.8,449.6c4.8,1.7,2,6.9,5.9,8.9,4.5,3.9-.4,7.8-4.3,3.4-1.1-.8-1.9-1.9-3.3-2.3-2.3-.7-.9-4.3-3.5-5-.9-.4,0-1.9.9-1.3,3.7,3.3,4.8.1,4.3-3.7Z"/>
        <path class="cls-4" d="M215,360.7c.4-2.6,1.2-4.5.5-6.7,3-3.7,4.9-8.3,8.7-11.3,0,4.6-2.9,9.1-6.4,12-1.9,1.6-.6,4.3-2.9,6Z"/>
        <path class="cls-4" d="M213.1,363.8c.7,6,0,7.6-4.1,10.9-.6.7-1.5.9-2.2.3.3-4.1,5.3-6.9,6.2-11.2Z"/>
        <path class="cls-4" d="M192.9,392.6c-1.7-.6-2.3-1.8-2.1-3.2.8-1.8-.6-5.8,1.3-6.6.8,0,2.7,3,2.2,3.5-1.7,1.8-.9,4.1-1.5,6.3Z"/>
        <path class="cls-4" d="M211.9,357.2c-.7-.5-.9-3,.3-2.6,1.2.3.8,2.3-.3,2.6Z"/>
        <path class="cls-4" d="M178.1,440.4c-2.5,1.2-.5-2.9,0,0,0,0,0,0,0,0Z"/>
        <path class="cls-4" d="M216.4,361.9c0,0-.2.1-.2.2,0-.3-.3-.5,0-.7,0,.2.1.3.2.5Z"/>
        <path class="cls-4" d="M144.8,313.4c-.3,0-.5-.2-.8-.2.5-.6.6,0,.8.2,0,0,0,0,0,0Z"/>
        <path class="cls-4" d="M149.2,283.8c0,0-.2-.2-.3-.3,0,0,.2.2.3.3,0,0,0,0,0,0Z"/>
        <path class="cls-4" d="M192,377.6c-.1,0-.2.2-.3.3,0-.1.2-.2.2-.3,0,0,0,0,0,0Z"/>
        <path class="cls-4" d="M300.7,152.3l.2.2s-.2-.2-.2-.2Z"/>
        <path class="cls-4" d="M174.3,371.8c0-.4.5-.2,0,0,0,0,0,0,0,0Z"/>
        <path class="cls-4" d="M304.5,131.6c0,0,.2,0,.2.1,0,.2-.1.1-.2-.1Z"/>
        <path class="cls-4" d="M470.5,141c.3,1.6.6,3.1,2.2,4.3,2.3,3.5,4.9,7.8,4.6,12.2,2.1,10.9-2.3,22.4,1.5,33.2,2.2,4-2.3,3.3,0,5.3,3.5,2.9-2.7,4,.3,6,2.5,2,3.3,6.1,3.2,9.3,1.3,4.1,2.5,8.4,5.2,12.2,4.1,5.9,10.9,9.9,13.1,16.8.1,1,.7,1.5,1.7,2,4.6,2.7,2.9,9.6,6.1,13.5.4.5.8,1.1.6,1.7-.8,2.2.1,4,.9,6.1,1.1,3.2.7,7.4-1,10.3-4.8,1-1,6.4-4.5,8.2-.6.2-1.2.7-1.3,1.3-.7,4.3-6.7,1.2-7.2,5.6-.3,1.7-2.5.8-1.8-.7.5-4.4,5.9-3.8,6.7-6.8-3.7-5.6-11,2.7-9.9,7.7,0,3.8,1.8,10.6-4.2,9.8-5.7.6-2.9,4-5.5,4.3-.9-.1-1.4-.7-1.2-1.5,1.6-4.5-3.8-6.3-3.4-10.3.7-3.2.3-7.2,3.4-9.4.9.6,0,2.4,1.5,2.6,1,.2,2.1.4,3.2,0-1.9-10.8,7.6-1.6,5-15.5-.4-1.3-.4-2.8.7-3.5,2.3-1.4.8-3.3.9-4.9.1-1.5-1.4-1.9-2.6-2.3-5.2-1.8,5-2.9-5.6-7.8,5.2-5.2-5.5-2.4-3.3-7.1.5-1.8-.3-2.2-1.7-2.6-4.9-.8,1.5-4-7.2-8,2.4-2.3-.3-4.6-1.9-6.3-2-1.6.5-4.4-2.6-6.2-2.8-3,4.1-1.5-1.2-8,2.7-2.4,2.8-1.4.5-5.4,5-2.3-1.1-6-.6-9.8,0-.4,0-1.1-.3-1.2-2.4-.9-2.8-3.8-4.9-5q3.2-1.6.2-4c.1-1.3,1.8-.9,2.2-2-3-3.2,3.3-6.5.6-10.3.8-1.7-.2-3.8,1.2-5.4.3-.3.8-.5.6-1-.9-2.4.5-4.7.2-6.9-.3-2.9,1-6-1.2-8.7-1.1-1.3.2-3,0-4.6-.2-1.3,0-2.7.1-4.1,0-4.6,3.5-3.9,6.9-3.4h0Z"/>
        <path class="cls-4" d="M458.7,253.6c7.4-5,4.1,9,7.5,11.1,2.5,2.2,3.7,4.7,2.4,8-1.3,2.7.2,7-3.3,8.3-.9,2.7-3.9,4.4-4.4,7.5-.8,7.4,11.6,4.5,8.8-2.6-.7-1.1,4.2-6.3,5-5.4.9,1.4-1.2,2.1-1.7,3.3-2.5,4.7,2.3,8,2.1,12.4,0,.5,0,1.1.3,1.5,2.1,2.9,1,6.1.8,9.2-1.6,4.2-7.8,10.9-3.4,15.1,2,1.1,1.7,2.6,1.5,4.2-.4,3.1-.3,3.2,2.7,3.5,9.5,1.7,9.2-6.1,15.5-7.6.6.3.4.9.3,1.4-.7,3.1.5,7.5-3.3,8.7-3.2,1.8-.8,7.8-6.4,7-1.7-.2-2.7,1.4-3,2.4-2.1,6.8-18.8,2.5-15.5-4.9.3-.7.6-1.5-.2-2-3.3-3-4.1-10.1-1.4-13.8.6-.7.7-1.8.3-2.7-1.1-2.4,0-4.7,0-7.1,1.8-5.1,12.8-1.1,7.1-11.2-1.7-2.3-5.1,0-7.3.2-9.5,1.5-6.5-15.9-1.7-19.8,8.2-9.1-.3-12.6-.1-21.7,0-2-.4-3.7-2.5-4.9Z"/>
        <path class="cls-4" d="M513.2,253.4c9,5,2.9,18.5,7.1,19.3,2.5,1.5.7,6,4.8,6.9,2.6.8,3.3,2.2,2.8,4.9.9,8.4-3.6,18.6-13.3,17.6-1.8-.2-2.9-1.7-4.4-2-1.2-1,2-3.2-1.1-3.3-3.2.2-1-3-.5-4.4.7-4.2,3.9-7.6,3.6-12.3-.1-3.1,1.2-6.3,1.8-9.5.5-2.4,4.3-1.7,3.3-4.8-.6-2.5-.4-5-2.8-7-1.2-1-.5-3.3-1.3-5.4ZM517.6,283.1c-.9-.7-1.7-1.3-2.8-2.1.1,1.3-1.5,2.2-.3,3.1.9.7,2-.2,3.1-1Z"/>
        <path class="cls-4" d="M478.2,327.8c-1.4-2.6,1.5-5.6-1.8-7.5-.6-.4-1.8-.8-1.4-1.8.7-1.6-.2-3.8,1.5-4.9,2.6-1.6,3.9-4.7,7-5.7.4-.1.6-.6.7-1,.7-3.3,3.2-4.4,6.3-4.9,2.5-.5,4.9-1.3,5.1-4.5,0-.4.3-.9.6-1.1,2.3-1.6,2.5-4.2,3.1-6.6.7-2.6,5.4-1.8,7.8-6.8,7.8-5.7-7.2,20.5-8.9,21.4-1.8,2.8-1.5,6.4-2.2,9.6-.4,3.5-5.8,1-5.9,5.1-1.1,1.2-3,1.2-3.3,3.4-1.7,3.4-5.3,4.1-8.4,5.3Z"/>
        <path class="cls-4" d="M423.3,472.9c-.8,3.9-1,7.4-3,10.5-3.8-1.7-.2-7.9-6.6-6.6-6.5,2.7-17.8,5.6-15.3,14.8-5.4,1.9-10.3-3.6-8.8-8.7,3.1-3.8,11.5-1.8,12.9-6.7,1.3-5.2-9.9-2.3-12.9-2.4-1.6.3-1.7,1.9-2.5,3.2-2.8-1.9-4-8.1.2-9,1.7-.5.3-3.4,2.6-3.4,4.5-.9,4.4,5.4,8.9,3.4,2.4-.8,4-.1,5.8,1.6,5.2,4.8,12.4,3.2,18.9,3.3Z"/>
        <path class="cls-4" d="M470.5,141c.5-2.6-3.4-2.4-5.1-2.3-1.5.2-1.3,2-2.3,2.7-.6.5-.2,2-1.6,1.8-4.4-.7-9.6-22.8-6.8-25.6,1,0,1,.9,1.5,1.4.6.5,1.1.7,1.9.2,3.7-2.7,3.4,3.8,5.1,5.7,1.2,4.7,7.9,3.6,7.6,6.6-1.5,4.4,5.5,5.9,3.2,10-1.1,1.8-2-1.3-3.4-.5,0,0,0,0,0,0Z"/>
        <path class="cls-4" d="M429.5,369.9c1.1.3,2.1.2,2.6,1.3.3,1.3,1.8.4,1.5-.6-3.5-8.8,4.3-9.7,4.5-3.9-1.2,7,2.2,8.9,7,12.7,2.9,3.2-8.6,6.2-10,8.5-.9,3.2-4.2,4.9-5.1,8-.3,1.3-3,2.6-2.7.4.3-1.7.1-3.6,1.4-5,6.7-8-3.4-9.7.8-21.3Z"/>
        <path class="cls-4" d="M495.1,374.2c-1.1,0-2,0-2.9-.6-2.7-2.3-5.5,2-7.7-.4-1.8-5.1,5.2-4.8,2.6-10.7-.4-1-.1-1.9.7-2.6,2.4-1,1.6-5.1,3.4-5,.5.1.6.6.6,1-.5,3,.9,5.4,2,8-.4,2.9,1.1,4.9,2.8,6.9,2.3,1.6,1,3.6-1.5,3.3Z"/>
        <path class="cls-4" d="M489.6,385.5c.9.4,1.7.7,2.8,1.2-1.5,2.2-5.8,9.3-7.6,4.1-1.4-3,1.6-8.2-2.5-9.3-4.1-1-1.5-3.8-5.8-6.6-1.9-2.4-2.1-2.3.2-4.1,1.2-.5,1.3-3,2.8-2.4,3,2.3-3.8,3-1,5.2.7.6,1.1,1.4,1.4,2.3,1.1,3.4,6.3,1.6,7.1,5,.7,2.5,6.6,1.4,2.6,4.6Z"/>
        <path class="cls-4" d="M510,323.7c.1-2.6.4-8.2-3.5-7.7-2.1.5-4.4-1-6.3.7-.4.4-1.2-.1-1.7-.5-.6-.5-.3-1.2,0-1.7,1-2,2.5-4.5,5.1-3.1,2.4-1.4,5-.6,7.5-.9.8-.2,1.4-.3,1.9.5.9,2.1-3.8,3.7,0,5.2,4.5,1.3,1.2,8.8-2.9,7.5Z"/>
        <path class="cls-4" d="M518.9,318c.7,3.1-.9,5.7-.6,8.7.2,3.3-3.1,3.2-5.4,2.9-5.2-1-3.5,7.2-10.3,5.8-.8-.2-1.6-1-.7-1.5,4-2.6,6.3-7.7,11.5-8.4,5.9-.5,1.5-6.7,5.6-7.4Z"/>
        <path class="cls-4" d="M458.3,461c-2.6.6-4.1-2.6-1.7-3.9,4.2-1.6,3-6.9,5.6-8.8.9,0,1.1.9,1.1,1.6,0,1.1.4,1.7,1.4,2.1,1.6.7,2,3.5.5,4.1-2.7,1.1-3.9,5.1-6.9,4.9Z"/>
        <path class="cls-4" d="M475.8,279.8c-.3-.9-.5-1.8.2-2.4,1.6-1.4,1.7-3.5,2.9-5.1,1.4-2.6-.3-5.8-.4-8.5-.7-1.3,1.6-1.6,1.8-.5.2,1.9,1.7,3.4,1.6,5.3,0,4.5-1.8,9.2-6.1,11.2Z"/>
        <path class="cls-4" d="M451.9,374.3c-5.9-4.1-6.2-4.7-4.9-9.4,2.1,2.9,5.4,4.8,4.9,9.4Z"/>
        <path class="cls-4" d="M467,381.4c.9,3.5,1.9,5.7-.2,8.7-.1.3-.5.4-.8.3-1.2-1.6-.3-4.5-1.1-6.5-.3-1.3,1.1-1.7,2.1-2.5Z"/>
        <path class="cls-4" d="M505.4,305.1c-3.5.5-3.8-2.6-.7-2.9,1.1-.2,2.3.1,3.1-.9.4-.5,1-.3,1.3.2,1.4,1.8-2.6,3.9-3.7,3.6Z"/>
        <polygon class="cls-4" points="512.9 252.7 513 252.6 513 252.8 512.9 252.7"/>
        <path class="cls-4" d="M198.8,497.7c1.6-.6,3.2-1.9,5.1-.6h0c-1.3,7.6-4.6,14.4-6.2,21.9-.4,1.4-.1,3.1-2.2,3.5-1.3,1.2,1.9,2.5.7,4.3-3.1-1.3-5.5-3.3-7.2-6.3,1.4-1.2,3.2,2.4,4.2-1.2.9-2.3,4-5.9.2-7.1-1.6-.4-2.2-2.4-4.2-2-.3,0-1-1.7-1.5-2.7-2,.7-2.9,2.9-5.1,3.6-.7.2-1.7,2.1-.7,3.2,1.9,1.9-2.2,2.9-2.3.6-.1-1.4-2.4-1.8-1.7-3.4.6-1.3,2.2-.9,3.3-1.5,2.4-1.8,5.8-2.9,7.5-5.4,3.1-2.3,7.5-4,10.3-6.9h0ZM190.4,505.5c.3,2.2,1.7,3.7,3.1,5.3,3.1,3,3.3-3.3,4.6-4.9,3.8-10.8-3.3-1.7-7.7-.3Z"/>
        <path class="cls-4" d="M267.4,535.4c.6,2.1.8,4.1-1.1,5.9-2.2-17.1-21.7-5.6-4.4,4.6,2.7,3.3,3.3,8.6-.3,11.6-.8.7-2.2.7-2.5,2.2-.1.7-.7,0-1,.1-1.4.3-2.8-.5-4.2-.2-1.2,0-1-2.4.4-1.4,1.5.8,2.7-.4,4-1,1.6-.9,3.4-1.8,1.8-4.1,2.4-5.3-8.7-8.4-8.8-13.5.1-4,1.8-7.3,5.4-9,1.6-.6,5.2-.4,6.1,1.6.1.4.5.8.9.8,2.4-.5,1.5,2.6,3.6,2.5h0Z"/>
        <path class="cls-4" d="M297.9,569.7c-4.4,4.9-11.9,1.5-15.7-2.6-4.6-9.3,2.1-25.7,14.2-23.2,1.5,0,1.2,1.6-.2,1.2-14.8.2-15.4,29.4,1.7,24.6Z"/>
        <path class="cls-4" d="M361.1,547.3c-6.9,11.8,7.4,9.4,14.5,11.2.2,0,.5.2.5.2,0,2.5,3.1,3.7,2.7,6.4-.3,2-1.2,3.8-4,6.6-.4-1.2.3-2,.5-2.9,1.9-8-5.2-7.1-10.4-8-1.9-.7-3.7.9-5.2-.9-3.6-2.1-2.7-12.2,1.5-12.5h0Z"/>
        <path class="cls-4" d="M450.7,501.4c6.4,7.1,8.6,15.8,16.5,21.1-1.6,2.1-2.9,3-5.3,3.6-.3-1.7.4-3.7-.9-5-1.8-1.4-2.6-3.7-4.4-5.2-2.1-2.2-1.7-6.8-5.3-7.9-1-.3-1.5-.7-2.3.2-.8,1.1-2.4-.8-1.1-1.4,1.9-1.1,2.4-3,2.9-5.5Z"/>
        <path class="cls-4" d="M384.6,571.1c-.7-4.4-1.6-8.7-2.6-13-.4-3.1-6.9-5.6-3.1-8.4.6-.4,2,0,3-.9,3.2,4.9,2.7,11,6.1,15.5,3.4,4-3.7,3.1-3.5,6.9Z"/>
        <path class="cls-4" d="M196,530.9c1.3.8.4,2.9,1.9,3.3,2.1.6,6.4-7.9,7.2-10,.3-1.2,1.5-.1,2.1-1.4,1-2.3,1.9-4.5,1.9-7.4,1.5,1,3,1.2,4.6,1.4-.2,2.1-2.4,2.4-3,4-1.2,4.4-4.9,7.1-6.9,11.1-1.5,3.4-6.6,5.8-9.4,2.3-.2-.4-.4-.8,0-1.1.8-.6.4-1.9,1.6-2.2Z"/>
        <path class="cls-4" d="M427.7,528.5c.5,5.3,2.9,3.4,2.5,6.4-.2,7.3,10.1,8.6,12.3,1.8-.2,7.8-8.1,8.8-13.1,4.8-1.1-1.6-2.1-2.4-3.3-3.6.3-2.5-1.5-5.1.4-7.5.5-.6-.4-2.3,1.4-1.8h0Z"/>
        <path class="cls-4" d="M480.2,478.5c5.1-4.6,11,1.7,14.4,5.4-1.2,1.8.9,2.5,1.3,3.8.3,1.1,1,2.2,1,3.5,0,.5-.2,1.1.5,1.3,1.5.5-.2,1.8-1,1.9-1.4.1-1.3-1.8-1.3-2.7,0-1.6-2.6-5.4-4.1-2.8-.4.5-.9-.9-.9-1.2.7-5.7-5.1-8.5-9.9-9Z"/>
        <path class="cls-4" d="M393.8,546.7c-.4,3.5,3,14.3,6.9,14.6-2.2.6-4.2,1-5.3,3-.4.7-.9.2-1.2-.2,0-4.6-1.2-8.7-3-12.8-.5-1.4-1.2-2.9-3.6-1.2.4-1.9.6-2.9,2.2-3.4,1.1-.3,2-1.4,3.2,0,.1.2.6,0,.9,0,0,0,0,0,0,0Z"/>
        <path class="cls-4" d="M411.7,537.7c-.9,5.5,4.1,15.6,10.6,11.6.4-.3.9-.7,1.4-.2.7,2.7-3.2,3.9-5.2,3.7-3.9.4-5-2.1-7.8-3.8-2-1-1.9-11.2,1-11.4Z"/>
        <path class="cls-4" d="M227.1,525.3c4.3,4.7-2,7.5-.5,10.4.4.6-.5.7-.9.9-2.3.7-4.9,5.2-1,6.1-1.6.6-2,2.1-3.5,1.1-1.5-1-1.7-2.2-.8-3.7-1-.6-2-.2-2.9-.5-.2-.6.3-1.2.6-1.2,2.5.4,7.4-5.2,3.6-6.1-.3,0-.7-.2-.6-.6.4-1.5,1.8.1,2.6-.8.4-2.1,3.3-3.2,3.3-5.7h0Z"/>
        <path class="cls-4" d="M393.8,546.7c1-4.9,7.7-5.7,9.5-.7,2.3,4,2,9.5,7.2,11-1.7,1-3.6.9-4.9,2.2-.5.4-1.4-.4-.9-1,1.3-2.7-2.9-5.5-3.3-8.4-1-4.7-3.7-5.7-7.6-3.1Z"/>
        <path class="cls-4" d="M511,484.9c2.3-5.3-1.6-11.6-6.3-12-1.7-.1-3.3.7-5.1.2,3.3-5.7,13.3-2,13.6,4.1,0,2.7,1.5,6.1-2.2,7.8Z"/>
        <path class="cls-4" d="M485.5,494.6c-6.5-.4-9.8-7.1-8-13,2.3,7.4,5.3,9.9,12.9,10.4-1.7,1.2-3.1,1.7-4.6,2.3-.3-.5-.9-.2-.3.3Z"/>
        <path class="cls-4" d="M479.9,503.3c-.8-.5-.8-2.2-1.5-2.7-6.2-.6-1.7-8.4-12-10.5,2.5-1.7,4.6.4,6.7.9,4.3,1.9,6.4,7.3,8.6,11.2-.4.8-1.5.4-1.8,1.1h0Z"/>
        <path class="cls-4" d="M462,496.2c4,2.2,4.5,9.3,9.7,8.4.5,0,1.1-.1,1.3.6-1.9,2.6-6,1.7-8.3,0-.4-.2-.8-.4-.8-.8-.3-2.7-2.5-5.1-1.8-8.1Z"/>
        <path class="cls-4" d="M427.7,528.5c3.3-6.9,15-2,11,1.3-2.1,1.6-4.7,2.2-6.6,4.4-1-2.5,1.8-2,2.8-3.4,1.5-1.8,1.1-3.5-1.2-4.2-4.5-1.9-1.6,3.1-6.1,1.9Z"/>
        <path class="cls-4" d="M491.2,470.6c-.5,0-.9-.1-.8-.6.1-3.9,4-5.4,6.6-7.6,1.1-1,1.7-.6,2.4,1.3h0c-2.8,1.6-6.6,4.5-6.3,8,0,.8.5,1.7-.8,2.3-.4-1.2-.7-2.3-1.1-3.4.3,0,.6-.1.8-.2,0-.1-.1-.2-.2-.3-.2.2-.4.3-.6.5Z"/>
        <path class="cls-4" d="M216,538.9c-4.8,2.2-6-6.5-2-8.2,1.5-1,2.9.2,4.3,0,0,0,.4.5.3.7,0,.3-.3.5-.5.7-3.4.3-4.6,3.2-2.1,6.8Z"/>
        <path class="cls-4" d="M371.7,572.5c-.8,2.4-2.9,1.8-4.7,1.2-.9,0-1.6,1.4-2.2.7-.9-1.3-5.7-4.1-2.2-4.9,2.7,1.7,5.6,2.1,8.7,2.3.4,0,.3.4.3.7Z"/>
        <path class="cls-4" d="M303.4,553.2c-1.9-2.4-1.6-5-4.3-6.4-.5-.2-.9-.7-.6-1.3,1.1-1.4,2.3.5,3.4.8,3.8,1.2,2.9,3.8,1.5,6.9Z"/>
        <path class="cls-4" d="M480.4,512.8c-1.5,2.3-6,4.6-7.6,1.7-.8-1.5,1.1-3.4,2.5-2.4,1.8.6,3.2,2,5.1.7Z"/>
        <path class="cls-4" d="M501.7,484.3c4.1-2.4,3.4,3.5,7.2,1.7,0,2.9-.8,2.4-2.8,1.8-2.9.6-3.8-1.3-4.5-3.5Z"/>
        <path class="cls-4" d="M250.4,556.8c-1.5-.1-2.8-1.4-4.7-.9,0-1.5.5-2.9.3-4.3-.3-1.5,1.9-1.8,2.2-.4.4,2,2.2,3.5,2.1,5.7h0Z"/>
        <path class="cls-4" d="M414.7,534.9c2.6-2.1,9.6-1.5,5.6,2.6-1.8,1-3.3-2.4-5.6-2.6Z"/>
        <path class="cls-4" d="M491.4,502.4c-.4-.1-1.1-.3-1.7-.6-1.3-.8-.2-3.8,1.3-2.9,1.5.4,2.9,2.2,4.7.4,1.5,1.1-2.8,3.2-4.2,3.1Z"/>
        <path class="cls-4" d="M379.9,543.1c-.2,3.8-5.1,2.8-4.7-.3.2-1.1,5.4-3,4.7.3Z"/>
        <path class="cls-4" d="M368.6,545c1.8-.2,5.1,5.5,1.8,5.1-1.1-.3-1.3-2.4-3-1.4-1-1.3-1.1-3.7,1.1-3.6Z"/>
        <path class="cls-4" d="M218.1,526.1c-.7-1.3-.7-3.3.4-3.2,1.9.2,4.5-1.9,6,1.3-2.3,0-4.2,1.6-6.4,1.9Z"/>
        <path class="cls-4" d="M218.2,509.8c.5,2.9-4.7,1.8-4.2-.4.5-2.9,4.2-2.9,4.2.4Z"/>
        <path class="cls-4" d="M271.6,561.3c1.3,3.7-4.6,5.4-4.2,1.4.3-.8.8-1.6,1.8-1.2.9.4,1.5-.6,2.5-.2Z"/>
        <path class="cls-4" d="M479.9,503.3c4.4.2,1.3,3.5,2.3,6.1-1.5-.7-.8-2-1.1-2.9-.4-1.1-1.1-2-1.2-3.2,0,0,0,0,0,0Z"/>
        <path class="cls-4" d="M299.9,565.9c.7.5,0,1.1.1,1.6.3.7-.7,1.5-1.3,1-.5-.6.2-.8.4-1.2.2-.4.4-.9.7-1.4Z"/>
        <path class="cls-4" d="M198.9,497.7c-.1-.2-.5-.4-.3-.6,0,.2.2.4.3.7,0,0,0,0,0,0Z"/>
        <path class="cls-4" d="M250.4,556.8l.8.3c-.5.5-.6,0-.8-.2h0Z"/>
        <path class="cls-4" d="M499.4,463.7c.1.2.2.3.3.5-.4,0-.1-.4-.3-.5Z"/>
        <path class="cls-4" d="M227.2,525.3l-.3-.3c.2,0,.2.1.3.3,0,0,0,0,0,0Z"/>
        <path class="cls-4" d="M203.9,497c0,0,0-.1.1-.2,0,0,0,.1-.1.2,0,0,0,0,0,0Z"/>
        <path class="cls-4" d="M267.4,535.4c0,0,.2-.2.3-.3,0,.2-.1.2-.3.3,0,0,0,0,0,0Z"/>
        <path class="cls-4" d="M361.1,547.4c0,0,.1-.2.1-.2.3,0,0,.1-.1.2Z"/>
        <path class="cls-4" d="M522.7,490.1h-.2c0,0,.1,0,.2,0,0,0,0,0,0,0Z"/>
        <path class="cls-1" d="M210.2,435.4c.2,1-.5,1.9.1,3,.6,1.1,1.7,2.4,2.5,1.7,1.2-1,2.3-.4,3.5-.5,4.3-1.2,4.4,6.7,8.6,3.2,3.6-4,8.4-8,9.4-13.5,0-1.8,1.3-3.2,2.8-4.3,1.9,2.2,1.6,4.4.9,6.9,2.1,3-5.8,6.3-.9,6.2,1.9.2,2.2.6,2,2.9-.2,2.4,4.8,3.8.8,5.2-3.5,3.7-2.4,1.8-6.5,2.2-.7.4-1,1.5-2.1,1.1-1-.3-1.8-1-2.6-1.7-.6-.5-.7-1.6-2.1-1.3.7,2.5,1.9,4.2,4.2,5.5,2.3,2.7,5,2,7.6.9,1.2-.5,1.9-.3,2.9.3-1.5,3.1-4.5,1.6-7,2.4-5.8,2.1-10.9-9.1-15.7-12-2.9-2.2-8.5,1.4-10-3.1-.1-.4-.3-1.1-1-1-2,.2-1.4-1.5-1.5-2.4,0-2,2.6-1.9,4-1.8,0,0,0,0,0,0Z"/>
        <path class="cls-2" d="M370.9,455.6c4.2-2.4,1.2-9.8,6.9-9.5,1.8.1,3.7-.1,3.6-2.3.6-3.9-5.7-.9-4.6-5,0-.5,0-1.2.8-1.2,3.8,2.5-.7,3.4,7.3,2.8,3.5.3,4.2-3.6,7-4.7,1.6-1,3.7.6,3.1,2.3-.4,6-7.6,4.4-11.6,6.6-.5,0-.9.6-.9,1.1-.2,3.8-4.4,1.2-6.2,3.3-.7.7-1.2,1-.6,2.3.7,1.4-.5,3-1.2,4.3-.6,1.1-2,.6-3.5,0Z"/>
        <path class="cls-1" d="M194.5,416c.2-2.9-.2-3.8-2.9-4.5-1.4-.4-2.2-1-2.3-2.4-.9-2.4-2.9-4.1-2.3-6.8,0-1.2,2.1-1.5,1.9-.1,0,2.1,1.6,3.6,2,5.5,2.5,3,6.7,4.4,7.6,8.8,2.3,5.1-5.5,3.4-4-.5Z"/>
        <path class="cls-1" d="M228.4,429.3c-1.7-2.1-1.7-4.9-2.9-7.1-.3-.5-.5-1.4.5-1.4,3.3-2.2,2.4,4.1,4.5,5.3-1,.8-.7,2.4-2.1,3.2Z"/>
        <path class="cls-2" d="M433.4,420.6c-.9,1.7-.5,5.8-3.1,6.1-.9,0-.7-.9-.7-1.4.3-2-.4-6.8,2.5-6.7,1.2.1,1,1.1,1.3,2.1Z"/>
        <path class="cls-1" d="M276.8,427.8c0,3.2-5.1,3.6-3.6,7.1,0,0-.3,1.6-1.7.5-2-1.6-2.5-2.1-.8-3.8,1.7-1.7,3.4-3.8,6.2-3.8,0,0,0,0,0,0Z"/>
        <path class="cls-2" d="M382.5,427.1c3.2.3,4.9,2.8,6.8,4.8.9,1.6-1.7,1.9-2.9,2.9,0-3.4-2.1-5.4-4-7.6,0,0,.2-.2.2-.2Z"/>
        <path class="cls-1" d="M259.7,428.4c-1.4,2.7-2.7-2-4.5-1.8-.2-.2-1.4-3,0-3.1.5-.2.9,0,1,.4.3,2.3,3.3,2.5,3.5,4.6Z"/>
        <path class="cls-1" d="M205.1,347.3c-.2,1.8-1.8.2,0,0,0,0,0,0,0,0Z"/>
        <path class="cls-1" d="M170.2,387.3c0,.3-.6.9-.8.3,0-.5.4-.6.8-.3Z"/>
        <path class="cls-1" d="M283,444.5c.8,0-.3,1.1-.3.4,0-.1.2-.3.3-.4Z"/>
        <path class="cls-1" d="M230.2,470.1c0-.1-.1-.3-.2-.4.1,0,.3.1.4.2,0,0-.1.2-.2.2Z"/>
        <path class="cls-1" d="M302.5,465c0-.1-.2-.3-.2-.4.1,0,.2.2.4.3,0,0-.1.1-.1.1Z"/>
        <path class="cls-1" d="M181.2,370.6c-.7-.2,0-.8,0,0,0,0,0,0,0,0Z"/>
        <path class="cls-3" d="M389.5,339.3c-7.7.7-15.3,2.8-23.1,2.7-3,0-1.8-3.4-4-4.8-2.5-2.9-5-6-6.7-9.6-.7-1.4-.8-3.2-2.8-3.5-.2-2.8-4.2-5-3.2-7.7,1.6-1.1,1-3,1.7-4.4.7-1.5,1.2-3.1,1.2-4.8,1.9-3.2,3-6.4,3.3-10.2.6-8.7,7-8.8,13.8-11,5.2,0,13.2-5.7,17.3-2,4.5,4.2,9,8.4,13.2,12.8,1,1.4,2.3,2.8,4.2,2.9.8,0,.8.6.7,1.1-1.2,3.2.4,6.8-1.5,9.8-1.6,1.8.7,2.1-.1,3.7-1.8,3.6-8.7,27.7-14.1,25.1Z"/>
        <path class="cls-3" d="M278.3,284.2c9.3,2,17,5.1,25.8,8.1,1.3.4,1.7,2.1,1.9,3.4,2,7,4.3,13.9,6.2,20.9,1.4,7.6-8.4,13.8-11,20.9-.3.5-.7,1.2-1.2,1.4-4.1,2.9-2.9,7.7-9.8,5.5-5.3-1.9-11.3-2-16.5-4-8.6-8.1-11.3-21.3-13.3-32.6-.9-2.8-1.2-8.2,1.4-9.9,1.6-.3,2.2-1.5,2.9-2.6,3.9-3.3,8.9-9.9,13.6-11Z"/>
        <path class="cls-3" d="M339.4,370.4c-7.5-.2-14.4,1.3-20.8-2-3.4.6-7.1-.5-9.3-3.3-2-4-5.8-7.3-7.3-11.5-1-2.3-4.1-4.7-1.7-7.3,3.1-2.8,3.6-7.4,7.4-9.3.7-3.8,5.1-5.5,5.6-9.4,0-.2.2-.5.3-.5,2.2-.4,2.3-2.4,3.1-3.9.5-1,1-2.7,2.6-.9,4.4-1,8.9-.5,13.4-.5,4.6.6,11.6-2.2,14.4,2.5,3.9,6.6,8.6,12.6,12.9,18.9,1.3,1.8,1.9,3.8.3,5.7-2.6,3.2-3.5,7.3-5.5,10.8-6.8,11.3-1.4,7.3-15.4,10.7Z"/>
        <path class="cls-3" d="M332.9,264.8c0-2.7.9-5.2,0-7.8-.7-3.7.6-8,0-11.9.6-6.8,8.3-6.4,12.1-10.4.9-.9,1.8.3,2.6-.3,1.7-1.4,3.9-1.9,5.8-2.9,2.5-1.4,4.7-1.8,7.2,0,8.4,2.6,15.2,8.3,21.8,14.1,6.5,3.5-.5,22.6-.9,29.2-1,6.2-9.2,4.2-13.4,7-2.1,1.1-4.6.8-6.9,1.4-1.8.4-3.4,1.6-5.4,1.1-2.7-.3-5.3-2.2-7.2-3.8-3.9-5.8-16.7-7.9-15.7-15.8Z"/>
        <path class="cls-3" d="M278.2,262.3c1-3.4-3.6-8.3-.4-11.6,3.5-3.5,7.5-6.2,10.7-10,.3-.6.8-1.5,1.8-1.5,2.7,0,4-2.3,6-3.5,2.7-2.2,6.2-2.5,8.9-4.6,5.2-2.1,15.3,8.6,20.6,10.2,4.7,2,1.1,9,3.1,12.9-2.1,8.3,2.6,15.4-7.2,20-5.6,3.5-10.2,8.1-15.5,11.8-1.2,1.3-2.9.5-4.1,0-2.5-.8-5-1.3-7.2-2.5-4.4.7-7.9-2.8-12.2-3.3-1.5-.3-2.6-1.4-2.6-2.9,0-5.1-1.4-9.9-1.8-14.9Z"/>
        <path class="cls-3" d="M336.2,382.9c-2.4.9-36.9-.5-30.7-5.6,1.3-1.1,2.8-1.9,3.6-3.7.4-1,2.2-.8,3.4-.6,1.5.2,3.3.3,4.5.9,2.5,1.1,5.3-.5,7.4,1.4,8.7-.2,17.5.2,26.1-2,2.2-.4,5.7,1.6,6.5,3.7.7,4-6.4,2.6-8.7,4.4-1,.4-2,1.2-3.1,0-.1-.1-.5-.2-.6,0-2,1.7-4.9,0-7,1.6-.4.3-1,.1-1.5,0Z"/>
        <path class="cls-3" d="M265.9,350.9c-6.1-5-4.4-5.3-7.8-11.7-7.8-12.8-9.7-28-9.6-42.6.4-3.4,3.3,0,5,.2,1.1.4,1.4,1.4,1.2,2.6-.2,5.8.7,11.7,1.9,17.4.6,3.3,3.1,5.9,2.9,9.4.9,3.1,3,5.2,4,8.1,3.2,8.1,5.9,6.6,2.4,16.6Z"/>
        <path class="cls-3" d="M269.4,250c-1.1-.7-2.6.4-3.4-1.1-.5-1.1.7-1.4,1-2.1.9-2.5,3-4.1,4.9-5.7,1-.8.9-2.7,2.1-2.7,1.8,0,1.6-1.7,2.5-2.3,2.7-1.9,5.3-4,8.2-5.7,5.8-4.5,12.1-8.2,19.3-10.3,1.6-.3,1.6.4,1.6,1.4-1.2,6.5-10.5,8.1-15.2,11.8-4.9,3.5-10,7.1-13.9,11.7-2.1,1.9-3.3,5.4-7.1,5Z"/>
        <path class="cls-3" d="M396.7,349.1c-1.6-1.8-3.2-3.8-1.6-6,5.8-8.3,11.4-17.4,12.3-27.8,1.2-2.4,2-4.6,1.1-7.3,1.7-4.1,1.6-8.5,1.7-13,5.3-5.3,2.5,14.3,1.7,16.6-.2,12-7.1,28.2-15.2,37.5Z"/>
        <path class="cls-3" d="M354.4,219.9c4.2-1.5,16.1,4.8,19.8,7.5,8.5,5.3,16.4,12.7,21.8,20.6-5.5,3.8-6.3-5.3-10.9-6.3-1.1-3.1-5.1-3-6.5-5.8-2.7-.6-3.7-4-6.7-3.9-3.5-4.3-18.3-6.3-17.4-12.1Z"/>
        <path class="cls-1" d="M264.9,357.4c0-.4.5-.1,0,0h0Z"/>
        <path class="cls-1" d="M265.7,139.1c1-2.4,3.6-1.8,5.2-2.9.9-.6,1.7.4,2.6.6,3.3,1,5.6,4.4,5.5,7.6-.8.5.7,2-.9,2-1,0-.7-1.1-1-1.7-1.3-5.3-6.9-6-11.5-5.7Z"/>
        <path class="cls-2" d="M350.4,189c-4.7,1-5.8-5.1-1.3-5.6,1,0,2,.4,3.1.5,1.8.2,1.8,1.5,1.8,2.8.1,2-1.9,2.5-3.5,2.3Z"/>
        <path class="cls-2" d="M389.5,135.6c-.9.6-1.8.4-2.7.4-7.5-.2-4.9,7-9,7.4-1.3-7.5,3.9-10.6,9.9-9.3.8.1,1.6.5,1.8,1.5Z"/>
        <path class="cls-1" d="M310,189.9c-2.1-.9-5.1.5-5.8-2-.2-1.3-.1-2.8,1.3-3.7,2.3-1.8,5.7,1.1,4.6,3.8,0,.5-.1,1-.2,1.9Z"/>
        <path class="cls-1" d="M290.7,189.6c.7,4.5-5.7,3.4-5.7.3-.1-3.5,6.4-4.8,5.7-.3Z"/>
        <path class="cls-2" d="M368.6,185.6c4.3-1,3.8,6,1.1,5.6-3.6.3-5.4-5.6-1.1-5.6Z"/>
        <path class="cls-1" d="M329.2,187.7c-.2.6-.6,1.2-1.3.8-2.8-.3-1.9-3.2-1-4.9.5-1.1,2.2-.6,3,0-1.5,1.2-.8,2.7-.7,4.1Z"/>
        <path class="cls-2" d="M329.2,187.7c0-1.4-.8-3,.7-4.1,1.8.1,2.1,1.8,3.3,2.8-1.2,1-2.2,2.4-4,1.3Z"/>
        <path class="cls-1" d="M170.5,257.4c0,0-.2.2-.3.3,0-.2.1-.2.3-.3,0,0,0,0,0,0Z"/>
        <path class="cls-1" d="M139.4,292c1.3,2.1-.7,4.3-2.1,2.2-.3-1.5,1-1.6,2.1-2.2Z"/>
        <path class="cls-1" d="M143.5,286.4c-.8,0-1.4-1.3-.3-1.3.7,0,1.3,1.4.3,1.3Z"/>
        <path class="cls-1" d="M156.1,315.3c0,0,.2.2.3.3-.2,0-.2-.3-.3-.3Z"/>
        <path class="cls-1" d="M167.4,361.8c0,0,.2.2.3.3-.2,0-.2-.2-.3-.3,0,0,0,0,0,0Z"/>
        <path class="cls-2" d="M517.6,283.1c-1,.8-2.1,1.7-3.1,1-1.2-.9.4-1.9.3-3.1,1.1.8,1.8,1.4,2.8,2.1Z"/>
        <path class="cls-1" d="M190.4,505.5c4.4-1.4,11.5-10.5,7.7.3-1.3,1.7-1.6,8-4.6,4.9-1.4-1.5-2.8-3-3.1-5.3Z"/>
        <path class="cls-1" d="M485.5,494.6c-.6-.4,0-.8.3-.3,0,0-.2.2-.3.3Z"/>
        <path class="cls-1" d="M491.2,470.6c.2-.2.4-.3.6-.5,0,.1.1.2.2.3-.3,0-.6,0-.8.2Z"/>
      </g>
    </g>
  </g>
</svg>